<svg width="592" height="516" viewBox="0 0 592 516" fill="none" xmlns="http://www.w3.org/2000/svg">
<g clip-path="url(#clip0_51_84)">
<path d="M533.77 268.535C533.847 332.384 509.185 393.777 464.968 439.808C462.302 442.601 459.564 445.327 456.754 447.985C452.474 452.06 448.049 455.977 443.481 459.735C400.747 494.968 347.397 514.767 292.039 515.937C290.194 515.979 288.343 516 286.485 516C242.335 516 186.806 492.402 136.414 459.735C132.244 457.033 128.112 454.268 124.017 451.44C122.103 450.13 120.198 448.802 118.303 447.456C98.8671 433.722 80.4187 418.641 63.0937 402.322C51.7504 391.668 41.1134 380.286 31.2504 368.248C-7.46979 320.453 -16.0101 277.387 39.1921 268.535C45.7278 267.49 52.0709 266.373 58.2215 265.184C67.1307 263.471 75.6571 261.621 83.8006 259.633C94.7701 256.966 105.076 254.073 114.718 250.955C117.962 249.91 121.131 248.844 124.226 247.758C169.983 231.675 200.608 210.703 221.455 187.948C224.99 184.096 228.25 180.198 231.234 176.253C235.799 170.249 239.945 163.938 243.644 157.364C248.749 148.23 253.037 138.662 256.458 128.772L256.646 128.228C273.232 80.3498 268.186 35.9399 286.485 21.0763C364.704 -42.4669 462.086 48.0245 507.794 154.738C510.098 160.115 512.265 165.524 514.295 170.967C515.207 173.397 516.086 175.833 516.933 178.273C519.16 184.632 521.181 191.008 522.996 197.399C523.692 199.837 524.355 202.273 524.986 204.706C525.661 207.332 526.309 209.951 526.907 212.57C531.355 231.745 533.77 250.655 533.77 268.535Z" fill="#202024"/>
<path d="M292.039 515.937C290.194 515.979 288.343 516 286.485 516C242.335 516 186.806 492.402 136.414 459.735C132.244 457.033 128.112 454.268 124.017 451.44L127.609 429.569L236.336 415.124L290.904 456.88L292.039 515.937Z" fill="#2F2E41"/>
<path d="M297.273 125.408H281.779C281.3 125.408 280.839 125.599 280.5 125.938C280.161 126.278 279.97 126.738 279.97 127.218V142.73C279.97 142.967 280.017 143.202 280.108 143.421C280.199 143.641 280.333 143.84 280.501 144.007C280.669 144.175 280.868 144.308 281.088 144.398C281.307 144.488 281.542 144.534 281.779 144.534H297.273C297.752 144.534 298.211 144.344 298.55 144.006C298.89 143.668 299.081 143.209 299.083 142.73V127.218C299.081 126.739 298.89 126.279 298.551 125.939C298.212 125.6 297.753 125.409 297.273 125.408Z" fill="#666666"/>
<path d="M297.273 151.84H281.779C281.3 151.841 280.839 152.031 280.5 152.371C280.161 152.711 279.97 153.171 279.97 153.651V169.163C279.97 169.4 280.017 169.635 280.108 169.854C280.199 170.074 280.333 170.273 280.501 170.44C280.669 170.608 280.868 170.74 281.088 170.831C281.307 170.921 281.542 170.967 281.779 170.967H297.273C297.752 170.967 298.211 170.777 298.55 170.439C298.89 170.101 299.081 169.642 299.083 169.163V153.651C299.081 153.171 298.89 152.712 298.551 152.372C298.212 152.033 297.753 151.842 297.273 151.84Z" fill="#4E4E4E"/>
<path d="M297.273 178.273H281.779C281.3 178.273 280.839 178.464 280.5 178.804C280.161 179.143 279.97 179.604 279.97 180.084V195.589C279.969 195.826 280.016 196.062 280.107 196.282C280.197 196.502 280.331 196.702 280.499 196.87C280.667 197.038 280.867 197.172 281.086 197.263C281.306 197.353 281.542 197.4 281.779 197.399H297.273C297.753 197.399 298.213 197.208 298.552 196.869C298.892 196.529 299.083 196.069 299.083 195.589V180.084C299.081 179.604 298.89 179.144 298.551 178.805C298.212 178.466 297.753 178.274 297.273 178.273Z" fill="#4E4E4E"/>
<path d="M299.055 206.196C298.978 205.779 298.757 205.402 298.432 205.13C298.107 204.858 297.697 204.708 297.273 204.706H281.779C281.3 204.706 280.839 204.897 280.5 205.237C280.161 205.576 279.97 206.037 279.97 206.517V222.021C279.969 222.259 280.016 222.495 280.107 222.715C280.197 222.935 280.331 223.135 280.499 223.303C280.667 223.471 280.867 223.605 281.086 223.695C281.306 223.786 281.542 223.833 281.779 223.832H297.273C297.753 223.832 298.213 223.641 298.552 223.302C298.892 222.962 299.083 222.502 299.083 222.021V206.517C299.084 206.409 299.075 206.302 299.055 206.196Z" fill="#4E4E4E"/>
<path d="M297.976 231.278C297.753 231.186 297.514 231.138 297.273 231.139H281.779C281.542 231.138 281.306 231.185 281.086 231.276C280.867 231.366 280.667 231.5 280.499 231.668C280.331 231.836 280.197 232.036 280.107 232.256C280.016 232.476 279.969 232.712 279.97 232.95V248.454C279.969 248.692 280.015 248.928 280.105 249.148C280.196 249.369 280.329 249.569 280.497 249.737C280.666 249.905 280.866 250.039 281.086 250.129C281.306 250.22 281.541 250.266 281.779 250.265H297.273C297.753 250.265 298.213 250.074 298.552 249.734C298.892 249.395 299.083 248.934 299.083 248.454V232.95C299.082 232.593 298.977 232.245 298.78 231.948C298.583 231.651 298.304 231.418 297.976 231.278Z" fill="#4E4E4E"/>
<path d="M329.819 125.408H314.326C313.846 125.408 313.386 125.599 313.046 125.938C312.707 126.278 312.516 126.738 312.516 127.218V142.73C312.516 142.967 312.563 143.202 312.655 143.421C312.746 143.641 312.879 143.84 313.047 144.007C313.215 144.175 313.415 144.308 313.634 144.398C313.853 144.488 314.089 144.534 314.326 144.534H329.819C330.298 144.534 330.758 144.344 331.097 144.006C331.436 143.668 331.627 143.209 331.629 142.73V127.218C331.628 126.739 331.437 126.279 331.098 125.939C330.758 125.6 330.299 125.409 329.819 125.408Z" fill="#4E4E4E"/>
<path d="M329.819 151.84H314.326C313.846 151.841 313.386 152.031 313.046 152.371C312.707 152.711 312.516 153.171 312.516 153.651V169.163C312.516 169.4 312.563 169.635 312.655 169.854C312.746 170.074 312.879 170.273 313.047 170.44C313.215 170.608 313.415 170.74 313.634 170.831C313.853 170.921 314.089 170.967 314.326 170.967H329.819C330.298 170.967 330.758 170.777 331.097 170.439C331.436 170.101 331.627 169.642 331.629 169.163V153.651C331.628 153.171 331.437 152.712 331.098 152.372C330.758 152.033 330.299 151.842 329.819 151.84Z" fill="#60E876"/>
<path d="M329.819 178.273H314.326C313.846 178.273 313.386 178.464 313.046 178.804C312.707 179.143 312.516 179.604 312.516 180.084V195.589C312.516 195.826 312.562 196.062 312.653 196.282C312.744 196.502 312.877 196.702 313.045 196.87C313.213 197.038 313.413 197.172 313.633 197.263C313.852 197.353 314.088 197.4 314.326 197.399H329.819C330.299 197.399 330.759 197.208 331.099 196.869C331.438 196.529 331.629 196.069 331.629 195.589V180.084C331.628 179.604 331.437 179.144 331.098 178.805C330.758 178.466 330.299 178.274 329.819 178.273Z" fill="#60E876"/>
<path d="M329.819 204.706H314.326C313.946 204.706 313.577 204.826 313.269 205.049C312.962 205.271 312.732 205.585 312.614 205.946C312.549 206.129 312.516 206.322 312.516 206.517V222.021C312.516 222.259 312.562 222.495 312.653 222.715C312.744 222.935 312.877 223.135 313.045 223.303C313.213 223.471 313.413 223.604 313.633 223.695C313.852 223.786 314.088 223.833 314.326 223.832H329.819C330.299 223.832 330.759 223.641 331.099 223.302C331.438 222.962 331.629 222.502 331.629 222.021V206.517C331.628 206.037 331.437 205.577 331.097 205.238C330.758 204.899 330.299 204.707 329.819 204.706Z" fill="#60E876"/>
<path d="M329.819 231.139H314.326C314.088 231.138 313.852 231.185 313.633 231.276C313.413 231.366 313.213 231.5 313.045 231.668C312.877 231.836 312.744 232.036 312.653 232.256C312.562 232.476 312.516 232.712 312.516 232.95V248.454C312.516 248.692 312.562 248.928 312.653 249.148C312.744 249.368 312.877 249.567 313.045 249.736C313.213 249.904 313.413 250.037 313.633 250.128C313.852 250.219 314.088 250.266 314.326 250.265H329.819C330.299 250.265 330.759 250.074 331.099 249.734C331.438 249.395 331.629 248.934 331.629 248.454V232.95C331.629 232.469 331.438 232.009 331.099 231.669C330.759 231.33 330.299 231.139 329.819 231.139Z" fill="#4E4E4E"/>
<path d="M362.366 125.408H346.872C346.392 125.408 345.932 125.599 345.593 125.938C345.254 126.278 345.063 126.738 345.063 127.218V142.73C345.063 142.967 345.11 143.202 345.201 143.421C345.292 143.641 345.425 143.84 345.594 144.007C345.762 144.175 345.961 144.308 346.18 144.398C346.4 144.488 346.635 144.534 346.872 144.534H362.366C362.845 144.534 363.304 144.344 363.643 144.006C363.982 143.668 364.174 143.209 364.176 142.73V127.218C364.174 126.739 363.983 126.279 363.644 125.939C363.305 125.6 362.845 125.409 362.366 125.408Z" fill="#60E876"/>
<path d="M362.366 151.84H346.872C346.392 151.841 345.932 152.031 345.593 152.371C345.253 152.711 345.063 153.171 345.063 153.651V169.163C345.063 169.4 345.11 169.635 345.201 169.854C345.292 170.074 345.425 170.273 345.594 170.44C345.762 170.608 345.961 170.74 346.18 170.831C346.4 170.921 346.635 170.967 346.872 170.967H362.366C362.845 170.967 363.304 170.777 363.643 170.439C363.982 170.101 364.174 169.642 364.176 169.163V153.651C364.174 153.171 363.983 152.712 363.644 152.372C363.305 152.033 362.845 151.842 362.366 151.84Z" fill="#60E876"/>
<path d="M362.366 178.273H346.872C346.392 178.273 345.932 178.464 345.593 178.804C345.253 179.143 345.063 179.604 345.063 180.084V195.589C345.062 195.826 345.109 196.062 345.199 196.282C345.29 196.502 345.423 196.702 345.592 196.87C345.76 197.038 345.959 197.172 346.179 197.263C346.399 197.353 346.634 197.4 346.872 197.399H362.366C362.846 197.399 363.306 197.208 363.645 196.869C363.985 196.529 364.175 196.069 364.176 195.589V180.084C364.174 179.604 363.983 179.144 363.644 178.805C363.305 178.466 362.845 178.274 362.366 178.273Z" fill="#4E4E4E"/>
<path d="M362.366 204.706H346.872C346.392 204.706 345.932 204.897 345.593 205.237C345.254 205.576 345.063 206.037 345.063 206.517V222.021C345.062 222.259 345.109 222.495 345.199 222.715C345.29 222.935 345.423 223.135 345.592 223.303C345.76 223.471 345.959 223.605 346.179 223.695C346.399 223.786 346.634 223.833 346.872 223.832H362.366C362.846 223.832 363.306 223.641 363.645 223.302C363.985 222.962 364.175 222.502 364.176 222.021V206.517C364.174 206.037 363.983 205.577 363.644 205.238C363.305 204.899 362.845 204.707 362.366 204.706Z" fill="#60E876"/>
<path d="M362.366 231.139H346.872C346.634 231.138 346.399 231.185 346.179 231.276C345.959 231.366 345.76 231.5 345.592 231.668C345.423 231.836 345.29 232.036 345.199 232.256C345.109 232.476 345.062 232.712 345.063 232.95V248.454C345.062 248.692 345.109 248.928 345.199 249.148C345.29 249.368 345.423 249.567 345.592 249.736C345.76 249.904 345.959 250.037 346.179 250.128C346.399 250.219 346.634 250.266 346.872 250.265H362.366C362.846 250.265 363.306 250.074 363.645 249.734C363.985 249.395 364.175 248.934 364.176 248.454V232.95C364.175 232.469 363.985 232.009 363.645 231.669C363.306 231.33 362.846 231.139 362.366 231.139Z" fill="#60E876"/>
<path d="M394.912 125.408H379.418C378.939 125.408 378.478 125.599 378.139 125.938C377.8 126.278 377.609 126.738 377.609 127.218V142.73C377.609 142.967 377.656 143.202 377.747 143.421C377.838 143.641 377.972 143.84 378.14 144.007C378.308 144.175 378.507 144.308 378.727 144.398C378.946 144.488 379.181 144.534 379.418 144.534H394.912C395.391 144.534 395.85 144.344 396.19 144.006C396.529 143.668 396.72 143.209 396.722 142.73V127.218C396.72 126.739 396.529 126.279 396.19 125.939C395.851 125.6 395.392 125.409 394.912 125.408Z" fill="#60E876"/>
<path d="M394.912 151.84H379.418C378.939 151.841 378.478 152.031 378.139 152.371C377.8 152.711 377.609 153.171 377.609 153.651V169.163C377.609 169.4 377.656 169.635 377.747 169.854C377.838 170.074 377.972 170.273 378.14 170.44C378.308 170.608 378.507 170.741 378.727 170.831C378.946 170.921 379.181 170.967 379.418 170.967H394.912C395.391 170.967 395.85 170.777 396.19 170.439C396.529 170.101 396.72 169.642 396.722 169.163V153.651C396.72 153.171 396.529 152.712 396.19 152.372C395.851 152.033 395.392 151.842 394.912 151.84Z" fill="#666666"/>
<path d="M394.912 178.273H379.418C378.939 178.273 378.478 178.464 378.139 178.804C377.8 179.143 377.609 179.604 377.609 180.084V195.589C377.608 195.826 377.655 196.062 377.746 196.282C377.836 196.502 377.97 196.702 378.138 196.87C378.306 197.038 378.506 197.172 378.725 197.263C378.945 197.353 379.181 197.4 379.418 197.399H394.912C395.392 197.399 395.852 197.208 396.192 196.869C396.531 196.529 396.722 196.069 396.722 195.589V180.084C396.72 179.604 396.529 179.144 396.19 178.805C395.851 178.466 395.392 178.274 394.912 178.273Z" fill="#666666"/>
<path d="M394.912 204.706H379.418C378.939 204.706 378.478 204.897 378.139 205.237C377.8 205.576 377.609 206.037 377.609 206.517V222.021C377.608 222.259 377.655 222.495 377.746 222.715C377.836 222.935 377.97 223.135 378.138 223.303C378.306 223.471 378.506 223.605 378.725 223.695C378.945 223.786 379.181 223.833 379.418 223.832H394.912C395.392 223.832 395.852 223.641 396.192 223.302C396.531 222.962 396.722 222.502 396.722 222.021V206.517C396.72 206.037 396.529 205.577 396.19 205.238C395.851 204.899 395.392 204.707 394.912 204.706Z" fill="#4E4E4E"/>
<path d="M394.912 231.139H379.418C379.181 231.138 378.945 231.185 378.725 231.276C378.506 231.366 378.306 231.5 378.138 231.668C377.97 231.836 377.836 232.036 377.746 232.256C377.655 232.476 377.608 232.712 377.609 232.95V248.454C377.608 248.692 377.655 248.928 377.746 249.148C377.836 249.368 377.97 249.567 378.138 249.736C378.306 249.904 378.506 250.037 378.725 250.128C378.945 250.219 379.181 250.266 379.418 250.265H394.912C395.392 250.265 395.852 250.074 396.192 249.734C396.531 249.395 396.722 248.934 396.722 248.454V232.95C396.722 232.469 396.531 232.009 396.192 231.669C395.852 231.33 395.392 231.139 394.912 231.139Z" fill="#60E876"/>
<path d="M427.458 125.408H411.958C411.479 125.409 411.02 125.601 410.683 125.94C410.345 126.28 410.155 126.739 410.155 127.218V142.73C410.155 143.208 410.345 143.667 410.683 144.005C411.021 144.344 411.48 144.534 411.958 144.534H427.458C427.937 144.534 428.397 144.344 428.736 144.006C429.075 143.668 429.267 143.209 429.268 142.73V127.218C429.267 126.739 429.076 126.279 428.737 125.939C428.397 125.6 427.938 125.409 427.458 125.408Z" fill="#666666"/>
<path d="M427.458 151.84H411.958C411.479 151.842 411.02 152.034 410.683 152.373C410.345 152.712 410.155 153.172 410.155 153.651V169.163C410.155 169.641 410.345 170.1 410.683 170.438C411.021 170.776 411.48 170.967 411.958 170.967H427.458C427.937 170.967 428.397 170.777 428.736 170.439C429.075 170.101 429.267 169.642 429.268 169.163V153.651C429.267 153.171 429.076 152.712 428.737 152.372C428.398 152.033 427.938 151.842 427.458 151.84Z" fill="#666666"/>
<path d="M427.458 178.273H411.958C411.479 178.275 411.02 178.466 410.683 178.806C410.345 179.145 410.155 179.605 410.155 180.084V195.589C410.154 195.826 410.201 196.061 410.291 196.281C410.381 196.5 410.514 196.7 410.681 196.868C410.849 197.036 411.048 197.17 411.267 197.261C411.486 197.352 411.721 197.399 411.958 197.399H427.458C427.938 197.399 428.399 197.208 428.738 196.869C429.077 196.529 429.268 196.069 429.268 195.589V180.084C429.267 179.604 429.076 179.144 428.737 178.805C428.398 178.466 427.938 178.274 427.458 178.273Z" fill="#666666"/>
<path d="M427.458 204.706H411.958C411.479 204.708 411.02 204.899 410.683 205.239C410.345 205.578 410.155 206.038 410.155 206.517V222.021C410.154 222.259 410.201 222.494 410.291 222.714C410.381 222.933 410.514 223.133 410.681 223.301C410.849 223.469 411.048 223.603 411.267 223.694C411.486 223.785 411.721 223.832 411.958 223.832H427.458C427.938 223.832 428.399 223.641 428.738 223.302C429.077 222.962 429.268 222.502 429.268 222.021V206.517C429.267 206.037 429.076 205.577 428.737 205.238C428.398 204.899 427.938 204.707 427.458 204.706Z" fill="#60E876"/>
<path d="M427.458 231.139H411.958C411.721 231.139 411.486 231.186 411.267 231.277C411.048 231.368 410.849 231.502 410.681 231.67C410.514 231.838 410.381 232.038 410.291 232.257C410.201 232.477 410.154 232.712 410.155 232.95V248.454C410.154 248.691 410.201 248.927 410.291 249.146C410.381 249.366 410.514 249.565 410.681 249.734C410.849 249.902 411.048 250.035 411.267 250.127C411.486 250.218 411.721 250.265 411.958 250.265H427.458C427.938 250.265 428.399 250.074 428.738 249.734C429.077 249.395 429.268 248.934 429.268 248.454V232.95C429.268 232.469 429.077 232.009 428.738 231.669C428.399 231.33 427.938 231.139 427.458 231.139Z" fill="#4E4E4E"/>
<path d="M460.005 125.408H444.504C444.025 125.409 443.567 125.601 443.229 125.94C442.891 126.28 442.701 126.739 442.702 127.218V142.73C442.702 143.208 442.892 143.667 443.23 144.005C443.568 144.344 444.026 144.534 444.504 144.534H460.005C460.484 144.534 460.943 144.344 461.282 144.006C461.621 143.668 461.813 143.209 461.815 142.73V127.218C461.813 126.739 461.622 126.279 461.283 125.939C460.944 125.6 460.484 125.409 460.005 125.408Z" fill="#666666"/>
<path d="M460.005 151.84H444.504C444.025 151.842 443.567 152.034 443.229 152.373C442.891 152.712 442.701 153.172 442.702 153.651V169.163C442.702 169.641 442.892 170.1 443.23 170.438C443.568 170.776 444.026 170.967 444.504 170.967H460.005C460.484 170.967 460.943 170.777 461.282 170.439C461.621 170.101 461.813 169.642 461.815 169.163V153.651C461.813 153.171 461.622 152.712 461.283 152.372C460.944 152.033 460.484 151.842 460.005 151.84Z" fill="#666666"/>
<path d="M460.005 178.273H444.504C444.025 178.275 443.567 178.466 443.229 178.806C442.891 179.145 442.701 179.605 442.702 180.084V195.589C442.701 195.826 442.747 196.061 442.837 196.281C442.928 196.5 443.06 196.7 443.228 196.868C443.395 197.036 443.594 197.17 443.813 197.261C444.032 197.352 444.267 197.399 444.504 197.399H460.005C460.485 197.399 460.945 197.208 461.284 196.869C461.624 196.529 461.814 196.069 461.815 195.589V180.084C461.813 179.604 461.622 179.144 461.283 178.805C460.944 178.466 460.484 178.274 460.005 178.273Z" fill="#60E876"/>
<path d="M460.005 204.706H444.504C444.025 204.708 443.567 204.899 443.229 205.239C442.891 205.578 442.701 206.038 442.702 206.517V222.021C442.701 222.259 442.747 222.494 442.837 222.714C442.928 222.933 443.06 223.133 443.228 223.301C443.395 223.469 443.594 223.603 443.813 223.694C444.032 223.785 444.267 223.832 444.504 223.832H460.005C460.485 223.832 460.945 223.641 461.284 223.302C461.624 222.962 461.814 222.502 461.815 222.021V206.517C461.813 206.037 461.622 205.577 461.283 205.238C460.944 204.899 460.484 204.707 460.005 204.706Z" fill="#4E4E4E"/>
<path d="M460.005 231.139H444.504C444.267 231.139 444.032 231.186 443.813 231.277C443.594 231.368 443.395 231.502 443.228 231.67C443.06 231.838 442.928 232.038 442.837 232.257C442.747 232.477 442.701 232.712 442.702 232.95V248.454C442.701 248.691 442.747 248.927 442.837 249.146C442.928 249.366 443.06 249.565 443.228 249.734C443.395 249.902 443.594 250.035 443.813 250.127C444.032 250.218 444.267 250.265 444.504 250.265H460.005C460.485 250.265 460.945 250.074 461.284 249.734C461.624 249.395 461.814 248.934 461.815 248.454V232.95C461.814 232.469 461.624 232.009 461.284 231.669C460.945 231.33 460.485 231.139 460.005 231.139Z" fill="#666666"/>
<path d="M492.551 125.408H477.051C476.572 125.409 476.113 125.601 475.775 125.94C475.437 126.28 475.248 126.739 475.248 127.218V142.73C475.248 143.208 475.438 143.667 475.776 144.005C476.114 144.344 476.573 144.534 477.051 144.534H492.551C493.03 144.534 493.489 144.344 493.829 144.006C494.168 143.668 494.359 143.209 494.361 142.73V127.218C494.36 126.739 494.168 126.279 493.829 125.939C493.49 125.6 493.031 125.409 492.551 125.408Z" fill="#60E876"/>
<path d="M492.551 151.84H477.051C476.572 151.842 476.113 152.034 475.775 152.373C475.437 152.712 475.248 153.172 475.248 153.651V169.163C475.248 169.641 475.438 170.1 475.776 170.438C476.114 170.776 476.573 170.967 477.051 170.967H492.551C493.03 170.967 493.489 170.777 493.829 170.439C494.168 170.101 494.359 169.642 494.361 169.163V153.651C494.36 153.171 494.168 152.712 493.829 152.372C493.49 152.033 493.031 151.842 492.551 151.84Z" fill="#60E876"/>
<path d="M492.551 178.273H477.051C476.572 178.275 476.113 178.466 475.775 178.806C475.437 179.145 475.248 179.605 475.248 180.084V195.589C475.247 195.826 475.293 196.061 475.384 196.281C475.474 196.5 475.607 196.7 475.774 196.868C475.941 197.036 476.14 197.17 476.359 197.261C476.579 197.352 476.813 197.399 477.051 197.399H492.551C493.031 197.399 493.491 197.208 493.831 196.869C494.17 196.529 494.361 196.069 494.361 195.589V180.084C494.36 179.604 494.168 179.144 493.829 178.805C493.49 178.466 493.031 178.274 492.551 178.273Z" fill="#4E4E4E"/>
<path d="M492.551 204.706H477.051C476.572 204.708 476.113 204.899 475.775 205.239C475.437 205.578 475.248 206.038 475.248 206.517V222.021C475.247 222.259 475.293 222.494 475.384 222.714C475.474 222.933 475.607 223.133 475.774 223.301C475.941 223.469 476.14 223.603 476.359 223.694C476.579 223.785 476.813 223.832 477.051 223.832H492.551C493.031 223.832 493.491 223.641 493.831 223.302C494.17 222.962 494.361 222.502 494.361 222.021V206.517C494.36 206.037 494.168 205.577 493.829 205.238C493.49 204.899 493.031 204.707 492.551 204.706Z" fill="#666666"/>
<path d="M492.551 231.139H477.051C476.813 231.139 476.579 231.186 476.359 231.277C476.14 231.368 475.941 231.502 475.774 231.67C475.607 231.838 475.474 232.038 475.384 232.257C475.293 232.477 475.247 232.712 475.248 232.95V248.454C475.247 248.691 475.293 248.927 475.384 249.146C475.474 249.366 475.607 249.565 475.774 249.734C475.941 249.902 476.14 250.035 476.359 250.127C476.579 250.218 476.813 250.265 477.051 250.265H492.551C493.031 250.265 493.491 250.074 493.831 249.734C494.17 249.395 494.361 248.934 494.361 248.454V232.95C494.361 232.469 494.17 232.009 493.831 231.669C493.491 231.33 493.031 231.139 492.551 231.139Z" fill="#60E876"/>
<path d="M525.098 125.408H509.597C509.118 125.409 508.66 125.601 508.322 125.94C507.984 126.28 507.794 126.739 507.794 127.218V142.73C507.794 143.208 507.984 143.667 508.322 144.005C508.66 144.344 509.119 144.534 509.597 144.534H525.098C525.576 144.534 526.036 144.344 526.375 144.006C526.714 143.668 526.906 143.209 526.907 142.73V127.218C526.906 126.739 526.715 126.279 526.376 125.939C526.037 125.6 525.577 125.409 525.098 125.408Z" fill="#60E876"/>
<path d="M525.098 151.84H509.597C509.118 151.842 508.66 152.034 508.322 152.373C507.984 152.712 507.794 153.172 507.794 153.651V169.163C507.794 169.641 507.984 170.1 508.322 170.438C508.66 170.776 509.119 170.967 509.597 170.967H525.098C525.576 170.967 526.036 170.777 526.375 170.439C526.714 170.101 526.906 169.642 526.907 169.163V153.651C526.906 153.171 526.715 152.712 526.376 152.372C526.037 152.033 525.577 151.842 525.098 151.84Z" fill="#60E876"/>
<path d="M525.098 178.273H509.597C509.118 178.275 508.66 178.466 508.322 178.806C507.984 179.145 507.794 179.605 507.794 180.084V195.589C507.794 195.826 507.84 196.061 507.93 196.281C508.02 196.5 508.153 196.7 508.32 196.868C508.488 197.036 508.687 197.17 508.906 197.261C509.125 197.352 509.36 197.399 509.597 197.399H525.098C525.577 197.399 526.038 197.208 526.377 196.869C526.716 196.529 526.907 196.069 526.907 195.589V180.084C526.906 179.604 526.715 179.144 526.376 178.805C526.037 178.466 525.577 178.274 525.098 178.273Z" fill="#4E4E4E"/>
<path d="M525.098 204.706H509.597C509.118 204.708 508.66 204.899 508.322 205.239C507.984 205.578 507.794 206.038 507.794 206.517V222.021C507.794 222.259 507.84 222.494 507.93 222.714C508.02 222.933 508.153 223.133 508.32 223.301C508.488 223.469 508.687 223.603 508.906 223.694C509.125 223.785 509.36 223.832 509.597 223.832H525.098C525.577 223.832 526.038 223.641 526.377 223.302C526.716 222.962 526.907 222.502 526.907 222.021V206.517C526.906 206.037 526.715 205.577 526.376 205.238C526.037 204.899 525.577 204.707 525.098 204.706Z" fill="#60E876"/>
<path d="M525.098 231.139H509.597C509.36 231.139 509.125 231.186 508.906 231.277C508.687 231.368 508.488 231.502 508.32 231.67C508.153 231.838 508.02 232.038 507.93 232.257C507.84 232.477 507.794 232.712 507.794 232.95V248.454C507.794 248.691 507.84 248.927 507.93 249.146C508.02 249.366 508.153 249.565 508.32 249.734C508.488 249.902 508.687 250.035 508.906 250.127C509.125 250.218 509.36 250.265 509.597 250.265H525.098C525.577 250.265 526.038 250.074 526.377 249.734C526.716 249.395 526.907 248.934 526.907 248.454V232.95C526.907 232.469 526.716 232.009 526.377 231.669C526.038 231.33 525.577 231.139 525.098 231.139Z" fill="#60E876"/>
<path d="M557.644 125.408H542.143C541.664 125.409 541.206 125.601 540.868 125.94C540.53 126.28 540.34 126.739 540.341 127.218V142.73C540.341 143.208 540.531 143.667 540.869 144.005C541.207 144.344 541.665 144.534 542.143 144.534H557.644C558.123 144.534 558.582 144.344 558.921 144.006C559.26 143.668 559.452 143.209 559.454 142.73V127.218C559.452 126.739 559.261 126.279 558.922 125.939C558.583 125.6 558.123 125.409 557.644 125.408Z" fill="#4E4E4E"/>
<path d="M557.644 151.84H542.143C541.664 151.842 541.206 152.034 540.868 152.373C540.53 152.712 540.34 153.172 540.341 153.651V169.163C540.341 169.641 540.531 170.1 540.869 170.438C541.207 170.776 541.665 170.967 542.143 170.967H557.644C558.123 170.967 558.582 170.777 558.921 170.439C559.26 170.101 559.452 169.642 559.454 169.163V153.651C559.452 153.171 559.261 152.712 558.922 152.372C558.583 152.033 558.123 151.842 557.644 151.84Z" fill="#60E876"/>
<path d="M557.644 178.273H542.143C541.664 178.275 541.206 178.466 540.868 178.806C540.53 179.145 540.34 179.605 540.341 180.084V195.589C540.34 195.826 540.386 196.061 540.476 196.281C540.567 196.5 540.699 196.7 540.867 196.868C541.034 197.036 541.233 197.17 541.452 197.261C541.671 197.352 541.906 197.399 542.143 197.399H557.644C558.124 197.399 558.584 197.208 558.923 196.869C559.263 196.529 559.453 196.069 559.454 195.589V180.084C559.452 179.604 559.261 179.144 558.922 178.805C558.583 178.466 558.123 178.274 557.644 178.273Z" fill="#60E876"/>
<path d="M557.644 204.706H542.143C541.664 204.708 541.206 204.899 540.868 205.239C540.53 205.578 540.34 206.038 540.341 206.517V222.021C540.34 222.259 540.386 222.494 540.476 222.714C540.567 222.933 540.699 223.133 540.867 223.301C541.034 223.469 541.233 223.603 541.452 223.694C541.671 223.785 541.906 223.832 542.143 223.832H557.644C558.124 223.832 558.584 223.641 558.923 223.302C559.263 222.962 559.453 222.502 559.454 222.021V206.517C559.452 206.037 559.261 205.577 558.922 205.238C558.583 204.899 558.123 204.707 557.644 204.706Z" fill="#60E876"/>
<path d="M557.644 231.139H542.143C541.906 231.139 541.671 231.186 541.452 231.277C541.233 231.368 541.034 231.502 540.867 231.67C540.699 231.838 540.567 232.038 540.476 232.257C540.386 232.477 540.34 232.712 540.341 232.95V248.454C540.34 248.691 540.386 248.927 540.476 249.146C540.567 249.366 540.699 249.565 540.867 249.734C541.034 249.902 541.233 250.035 541.452 250.127C541.671 250.218 541.906 250.265 542.143 250.265H557.644C558.124 250.265 558.584 250.074 558.923 249.734C559.263 249.395 559.453 248.934 559.454 248.454V232.95C559.453 232.469 559.263 232.009 558.923 231.669C558.584 231.33 558.124 231.139 557.644 231.139Z" fill="#4E4E4E"/>
<path d="M590.19 125.408H574.69C574.211 125.409 573.752 125.601 573.414 125.94C573.077 126.28 572.887 126.739 572.887 127.218V142.73C572.887 143.208 573.077 143.667 573.415 144.005C573.753 144.344 574.212 144.534 574.69 144.534H590.19C590.669 144.534 591.129 144.344 591.468 144.006C591.807 143.668 591.998 143.209 592 142.73V127.218C591.999 126.739 591.807 126.279 591.468 125.939C591.129 125.6 590.67 125.409 590.19 125.408Z" fill="#4E4E4E"/>
<path d="M590.19 151.84H574.69C574.211 151.842 573.752 152.034 573.414 152.373C573.076 152.712 572.887 153.172 572.887 153.651V169.163C572.887 169.641 573.077 170.1 573.415 170.438C573.753 170.776 574.212 170.967 574.69 170.967H590.19C590.669 170.967 591.129 170.777 591.468 170.439C591.807 170.101 591.998 169.642 592 169.163V153.651C591.999 153.171 591.808 152.712 591.468 152.372C591.129 152.033 590.67 151.842 590.19 151.84Z" fill="#4E4E4E"/>
<path d="M590.19 178.273H574.69C574.211 178.275 573.752 178.466 573.414 178.806C573.076 179.145 572.887 179.605 572.887 180.084V195.589C572.886 195.826 572.932 196.061 573.023 196.281C573.113 196.5 573.246 196.7 573.413 196.868C573.581 197.036 573.78 197.17 573.999 197.261C574.218 197.352 574.452 197.399 574.69 197.399H590.19C590.67 197.399 591.13 197.208 591.47 196.869C591.809 196.529 592 196.069 592 195.589V180.084C591.999 179.604 591.808 179.144 591.468 178.805C591.129 178.466 590.67 178.274 590.19 178.273Z" fill="#60E876"/>
<path d="M590.19 204.706H574.69C574.211 204.708 573.752 204.899 573.414 205.239C573.077 205.578 572.887 206.038 572.887 206.517V222.021C572.886 222.259 572.932 222.494 573.023 222.714C573.113 222.933 573.246 223.133 573.413 223.301C573.581 223.469 573.78 223.603 573.999 223.694C574.218 223.785 574.452 223.832 574.69 223.832H590.19C590.67 223.832 591.13 223.641 591.47 223.302C591.809 222.962 592 222.502 592 222.021V206.517C591.999 206.037 591.808 205.577 591.468 205.238C591.129 204.899 590.67 204.707 590.19 204.706Z" fill="#4E4E4E"/>
<path d="M590.19 231.139H574.69C574.452 231.139 574.218 231.186 573.999 231.277C573.78 231.368 573.581 231.502 573.413 231.67C573.246 231.838 573.113 232.038 573.023 232.257C572.932 232.477 572.886 232.712 572.887 232.95V248.454C572.886 248.692 572.932 248.927 573.023 249.146C573.113 249.366 573.246 249.565 573.413 249.734C573.581 249.902 573.78 250.035 573.999 250.127C574.218 250.218 574.452 250.265 574.69 250.265H590.19C590.67 250.265 591.13 250.074 591.47 249.734C591.809 249.395 592 248.934 592 248.454V232.95C592 232.469 591.809 232.009 591.47 231.669C591.13 231.33 590.67 231.139 590.19 231.139Z" fill="#4E4E4E"/>
<path d="M233.931 459.736H233.501L233.869 459.688L233.931 459.736Z" fill="#2F2E41"/>
<path d="M196.847 170.685C223.111 170.685 244.401 149.379 244.401 123.097C244.401 96.8156 223.111 75.51 196.847 75.51C170.584 75.51 149.293 96.8156 149.293 123.097C149.293 149.379 170.584 170.685 196.847 170.685Z" fill="#FFB6B6"/>
<path d="M238.492 88.2071C238.492 88.2071 250.93 64.4135 223.566 62.2504C223.566 62.2504 200.239 41.0747 176.462 58.3791C176.462 58.3791 163.493 58.3791 156.401 73.0657C156.401 73.0657 146.2 69.1944 143.959 79.5548C143.959 79.5548 136.495 101.185 143.959 120.653C151.423 140.121 153.902 142.284 153.902 142.284C153.902 142.284 141.637 101.469 171.49 99.3057C201.344 97.1426 234.75 78.4733 237.238 102.267C239.726 126.061 243.47 131.923 243.47 131.923C243.47 131.923 267.1 97.9409 238.492 88.2071Z" fill="#2F2E41"/>
<path d="M319.859 240.375L319.706 241.182L317.987 250.265L306.106 313.091L305.403 316.789L303.927 324.611L301.909 335.282L297.433 358.929L296.152 365.706L295.672 368.248L295.505 369.139L294.176 376.153L293.772 378.271L290.528 402.322L287.696 423.28L297.176 432.766L291.524 438.422L287.814 459.687L287.821 459.735H136.414C130.288 455.765 124.252 451.672 118.303 447.456L119.549 438.123C119.549 438.123 123.836 421.455 122.033 419.463C120.238 417.471 116.298 413.912 116.298 413.912L121.261 402.322L121.95 400.713L120.795 376.732L120.767 376.153L120.384 368.248L120.335 367.231L120.259 365.706L118.79 335.282L118.762 334.78L118.317 325.558L117.899 316.789L117.718 313.091L115.929 276.085L114.718 250.955L113.66 229.077L117.913 227.635L163.399 212.166L182.24 187.655L221.455 187.948L240.651 188.094L272.682 217.821L279.97 221.304L280.026 221.332L285.253 223.832L298.505 230.164L312.516 236.864L319.706 240.298L319.859 240.375Z" fill="#CACACA"/>
<path d="M187.308 388.343C184.434 389.457 181.351 389.927 178.277 389.72C175.202 389.513 172.21 388.634 169.511 387.144C166.813 385.655 164.474 383.591 162.658 381.099C160.843 378.607 159.596 375.747 159.005 372.721L84.8364 362.191L110.619 333.005L177.098 347.479C182.245 346.822 187.454 348.077 191.737 351.006C196.021 353.936 199.082 358.336 200.341 363.373C201.6 368.41 200.968 373.734 198.566 378.336C196.164 382.939 192.158 386.499 187.308 388.343V388.343Z" fill="#FFB6B6"/>
<path d="M154.239 335.282C152.865 333.539 150.92 332.338 148.747 331.89L118.317 325.558L115.192 324.911C113.375 324.531 111.66 323.773 110.157 322.684C108.654 321.595 107.398 320.201 106.47 318.593C105.508 316.905 104.926 315.027 104.765 313.091C104.62 311.33 104.831 309.558 105.384 307.881L115.929 276.085L122.771 255.454C123.6 252.966 124.09 250.377 124.226 247.758C124.607 240.509 122.366 233.365 117.913 227.635C113.998 222.599 108.568 218.956 102.425 217.245C96.2825 215.535 89.7527 215.846 83.8006 218.135C83.6266 218.197 83.4456 218.267 83.2716 218.337C79.003 220.042 75.1894 222.718 72.1319 226.152C69.0745 229.587 66.8572 233.685 65.6551 238.125L58.2215 265.184L42.8879 320.968C41.353 326.558 41.0429 332.413 41.9789 338.133C42.9148 343.853 45.0748 349.303 48.3109 354.11C51.547 358.918 55.7829 362.968 60.7285 365.986C65.6742 369.003 71.2129 370.915 76.9656 371.591L120.795 376.732L141.077 379.114C143.422 379.396 145.788 378.783 147.702 377.398C149.616 376.013 150.939 373.957 151.406 371.64C151.439 371.514 151.464 371.386 151.483 371.257L151.97 368.248L156.097 342.909L156.139 342.651C156.354 341.358 156.296 340.034 155.969 338.765C155.642 337.496 155.052 336.309 154.239 335.282Z" fill="#CACACA"/>
<path d="M234.55 389.156C237.552 389.853 240.67 389.883 243.685 389.244C246.7 388.605 249.538 387.313 252 385.457C254.461 383.602 256.486 381.229 257.932 378.506C259.378 375.782 260.21 372.775 260.369 369.695L332.312 348.804L302.674 323.548L238.899 347.259C233.711 347.335 228.731 349.312 224.903 352.817C221.075 356.322 218.664 361.11 218.128 366.274C217.592 371.438 218.968 376.62 221.994 380.837C225.021 385.055 229.488 388.014 234.55 389.156V389.156Z" fill="#FFB6B6"/>
<path d="M368.032 302.072L333.815 223.268C331.016 216.798 326.017 211.53 319.706 208.397C317.755 207.436 315.706 206.689 313.595 206.169C313.268 206.085 312.941 206.008 312.614 205.946C308.136 204.968 303.493 205.054 299.055 206.196C294.998 207.239 291.207 209.126 287.928 211.734C284.649 214.342 281.956 217.612 280.025 221.332C280.004 221.363 279.986 221.395 279.97 221.429C277.813 225.605 276.666 230.228 276.621 234.928C276.576 239.628 277.635 244.273 279.712 248.489L280.137 249.339L304.317 297.935C305.143 299.596 305.608 301.414 305.682 303.268C305.756 305.123 305.438 306.972 304.748 308.694C304.058 310.417 303.011 311.974 301.678 313.263C300.344 314.553 298.753 315.546 297.009 316.176L295.31 316.789L264.768 327.829C262.477 328.647 260.592 330.324 259.51 332.505C258.429 334.686 258.235 337.202 258.97 339.524L259.047 339.767L267.608 367.182C267.65 367.308 267.692 367.433 267.74 367.558C267.816 367.795 267.909 368.025 268.019 368.248C268.929 370.29 270.537 371.94 272.554 372.902C274.571 373.863 276.865 374.073 279.023 373.493L295.505 369.139L298.867 368.248L341.429 356.999C347.029 355.518 352.244 352.844 356.715 349.159C361.187 345.474 364.81 340.866 367.336 335.649C369.862 330.433 371.233 324.732 371.353 318.937C371.473 313.141 370.34 307.388 368.031 302.072L368.032 302.072Z" fill="#CACACA"/>
<path d="M31.2504 368.248C41.1134 380.286 51.7504 391.668 63.0937 402.322H377.678C380.709 402.326 383.615 403.534 385.757 405.679C387.9 407.824 389.104 410.732 389.107 413.765L389.56 493.537C408.913 484.64 427.036 473.278 443.481 459.735C448.047 455.981 452.471 452.064 456.754 447.985C459.559 445.325 462.297 442.599 464.968 439.808C484.988 418.937 501.2 394.718 512.868 368.248H31.2504Z" fill="#3F3D56"/>
<path d="M464.967 439.808C462.302 442.601 459.564 445.327 456.754 447.985H389.789V439.808H464.967Z" fill="#666666"/>
<path d="M319.233 178.273C318.902 177.662 318.412 177.152 317.816 176.796C317.219 176.441 316.538 176.253 315.843 176.253H87.6567C86.6336 176.256 85.6533 176.664 84.9306 177.389C84.2078 178.113 83.8015 179.095 83.8007 180.119V316.789H319.706V180.119C319.71 179.473 319.547 178.837 319.233 178.273Z" fill="#3F3D56"/>
<path d="M83.594 313.089V329.954C83.594 330.654 83.7316 331.346 83.999 331.992C84.2663 332.638 84.6582 333.225 85.1523 333.719C85.6463 334.214 86.2328 334.606 86.8783 334.873C87.5238 335.141 88.2156 335.279 88.9143 335.279H175.985V368.563H174.829C174.738 368.563 174.648 368.581 174.564 368.615C174.48 368.65 174.404 368.701 174.34 368.765C174.276 368.829 174.225 368.906 174.19 368.99C174.155 369.074 174.138 369.163 174.138 369.254V371.569C174.138 371.66 174.155 371.75 174.19 371.834C174.225 371.918 174.276 371.994 174.34 372.058C174.404 372.123 174.48 372.174 174.564 372.208C174.648 372.243 174.738 372.261 174.829 372.261H228.881C228.972 372.261 229.062 372.243 229.146 372.208C229.23 372.174 229.306 372.123 229.37 372.058C229.434 371.994 229.485 371.918 229.52 371.834C229.555 371.75 229.572 371.66 229.572 371.569V369.254C229.572 369.163 229.555 369.074 229.52 368.99C229.485 368.906 229.434 368.829 229.37 368.765C229.306 368.701 229.23 368.65 229.146 368.615C229.062 368.581 228.972 368.563 228.881 368.563H227.725V335.279H314.796C315.494 335.279 316.186 335.141 316.832 334.873C317.477 334.606 318.064 334.214 318.558 333.719C319.052 333.225 319.444 332.638 319.711 331.992C319.978 331.346 320.116 330.654 320.116 329.954V313.089H83.594Z" fill="#3F3D56"/>
<path d="M198.997 264.683C211.031 264.683 220.787 254.921 220.787 242.878C220.787 230.835 211.031 221.072 198.997 221.072C186.963 221.072 177.207 230.835 177.207 242.878C177.207 254.921 186.963 264.683 198.997 264.683Z" fill="#60E876"/>
<path d="M254.516 120.497H251.036C251.036 94.1687 224.997 76.916 198.729 76.9021C194.908 76.8909 191.096 77.2619 187.349 78.0096C183.131 78.8523 178.753 79.8623 174.452 81.1787C157.489 86.3817 141.759 96.4394 141.759 120.497C141.755 125.169 142.35 129.823 143.527 134.344L140.158 135.221C138.909 130.413 138.277 125.465 138.279 120.497C138.279 99.4762 146.903 85.0374 161.798 76.4285C169.628 71.9011 179.185 68.9827 190.133 67.5618C194.689 66.9553 199.295 66.8152 203.88 67.1439C234.087 69.317 254.516 92.4971 254.516 120.497Z" fill="#60E876"/>
<path d="M260.314 122.426L258.943 112.285C258.604 109.724 257.372 107.365 255.462 105.626C254.237 104.493 252.77 103.653 251.172 103.17C249.574 102.688 247.888 102.575 246.24 102.84L244.062 103.14C243.465 103.218 242.891 103.415 242.371 103.717C241.851 104.02 241.397 104.422 241.034 104.902C240.668 105.38 240.4 105.926 240.246 106.508C240.092 107.09 240.054 107.697 240.136 108.294L243.303 131.655C243.433 132.607 243.86 133.494 244.522 134.191C245.184 134.887 246.048 135.357 246.992 135.535C247.271 135.591 247.556 135.619 247.841 135.618C248.046 135.618 248.25 135.604 248.453 135.577L250.89 135.249C252.375 135.052 253.804 134.553 255.09 133.783C256.375 133.013 257.49 131.988 258.365 130.771C258.553 130.506 258.734 130.234 258.901 129.956C260.205 127.677 260.703 125.024 260.314 122.426Z" fill="#60E876"/>
<path d="M242.656 103.565C242.017 103.875 241.461 104.334 241.034 104.902C240.668 105.38 240.4 105.926 240.246 106.508C240.092 107.09 240.054 107.697 240.136 108.294L243.303 131.655C243.433 132.607 243.86 133.494 244.522 134.191C245.184 134.887 246.048 135.357 246.992 135.535L242.656 103.565Z" fill="#666666"/>
<path d="M260.314 122.426L258.943 112.285C258.604 109.724 257.372 107.365 255.463 105.626L258.616 128.869C258.663 129.242 258.759 129.608 258.901 129.956C260.205 127.677 260.703 125.024 260.314 122.426Z" fill="#3F3D56"/>
<path d="M249.477 129.733C250.429 129.604 250.908 127.336 250.546 124.668C250.184 122 249.119 119.941 248.167 120.071C247.215 120.2 246.736 122.468 247.098 125.136C247.459 127.804 248.525 129.863 249.477 129.733Z" fill="#3F3D56"/>
<path d="M247.389 117.196C248.341 117.067 248.82 114.799 248.458 112.131C248.096 109.462 247.031 107.404 246.079 107.533C245.127 107.663 244.648 109.93 245.01 112.599C245.371 115.267 246.437 117.325 247.389 117.196Z" fill="#3F3D56"/>
<path d="M260.613 122.072C261.566 121.942 262.044 119.675 261.683 117.006C261.321 114.338 260.256 112.28 259.303 112.409C258.351 112.538 257.872 114.806 258.234 117.474C258.596 120.143 259.661 122.201 260.613 122.072Z" fill="#3F3D56"/>
<path d="M198.729 76.9021C194.908 76.8909 191.096 77.2619 187.349 78.0095C183.131 78.8523 178.753 79.8623 174.452 81.1787C167.735 80.8513 162.793 79.11 161.798 76.4284C169.628 71.9011 179.185 68.9827 190.133 67.5618C194.689 66.9552 199.295 66.8152 203.88 67.1439C204.365 67.4286 204.785 67.8128 205.111 68.2714C205.437 68.73 205.663 69.2525 205.773 69.8046C206.1 72.2285 203.337 74.8055 198.729 76.9021Z" fill="#3F3D56"/>
<path d="M154.295 144.666L148.935 122.371C148.744 121.566 148.32 120.836 147.715 120.273C147.111 119.709 146.354 119.336 145.538 119.202C145.308 119.166 145.076 119.147 144.842 119.146C144.514 119.147 144.187 119.187 143.868 119.264L141.794 119.766C139.123 120.412 136.818 122.092 135.384 124.437C133.95 126.783 133.504 129.601 134.144 132.275L136.546 142.277C137.094 144.632 138.4 146.741 140.263 148.281C140.564 148.525 140.881 148.751 141.209 148.957C142.376 149.689 143.677 150.179 145.037 150.399C146.396 150.619 147.785 150.565 149.123 150.238L151.19 149.737C151.737 149.609 152.251 149.37 152.701 149.033C153.369 148.546 153.878 147.87 154.161 147.092C154.445 146.315 154.492 145.47 154.295 144.666Z" fill="#60E876"/>
<path d="M143.059 140.518C143.993 140.293 144.24 137.988 143.611 135.37C142.981 132.752 141.714 130.812 140.779 131.037C139.845 131.262 139.598 133.567 140.227 136.185C140.857 138.803 142.125 140.743 143.059 140.518Z" fill="#3F3D56"/>
<path d="M136.099 142.607C137.033 142.382 137.28 140.078 136.651 137.46C136.021 134.842 134.753 132.902 133.819 133.127C132.885 133.352 132.637 135.656 133.267 138.274C133.897 140.892 135.164 142.832 136.099 142.607Z" fill="#3F3D56"/>
<path d="M154.636 144.583L149.276 122.287C149.067 121.417 148.607 120.627 147.952 120.018C147.297 119.408 146.477 119.006 145.594 118.86L152.909 149.312C153.632 148.782 154.181 148.051 154.489 147.209C154.796 146.367 154.847 145.453 154.636 144.583Z" fill="#666666"/>
<path d="M135.356 127.859C135.208 127.239 134.93 126.658 134.541 126.153C133.788 128.105 133.649 130.242 134.145 132.275L136.546 142.277C137.094 144.632 138.4 146.741 140.263 148.281L135.356 127.859Z" fill="#3F3D56"/>
</g>
<defs>
<clipPath id="clip0_51_84">
<rect width="592" height="516" fill="white"/>
</clipPath>
</defs>
</svg>
