<svg width="488" height="455" viewBox="0 0 488 455" fill="none" xmlns="http://www.w3.org/2000/svg">
<g clip-path="url(#clip0_52_210)">
<path d="M371.861 108.125H369.357V39.6385C369.357 29.1257 365.173 19.0435 357.727 11.6098C350.281 4.17619 340.181 0 329.651 0H184.309C173.778 0 163.679 4.17619 156.232 11.6098C148.786 19.0435 144.603 29.1257 144.603 39.6385V415.361C144.603 425.874 148.786 435.956 156.232 443.39C163.679 450.824 173.778 455 184.309 455H329.653C340.184 455 350.283 450.824 357.73 443.39C365.176 435.956 369.359 425.874 369.359 415.361V156.875H371.861V108.125Z" fill="#3F3D56"/>
<path d="M361.264 36.986V418.016C361.263 425.986 358.091 433.63 352.446 439.267C346.801 444.903 339.145 448.072 331.161 448.075H182.829C174.842 448.075 167.181 444.909 161.532 439.271C155.884 433.633 152.709 425.986 152.708 418.013V36.986C152.71 29.0127 155.885 21.3668 161.534 15.73C167.182 10.0932 174.843 6.92708 182.829 6.92797H200.822C199.939 9.09698 199.603 11.4494 199.843 13.7785C200.084 16.1076 200.894 18.3421 202.202 20.2855C203.51 22.2289 205.277 23.8218 207.346 24.9241C209.415 26.0264 211.724 26.6045 214.069 26.6074H298.634C300.98 26.6042 303.288 26.0259 305.358 24.9232C307.427 23.8206 309.193 22.2274 310.501 20.2836C311.809 18.3399 312.619 16.1052 312.859 13.776C313.099 11.4467 312.762 9.09422 311.878 6.92529H331.152C339.136 6.92671 346.793 10.0932 352.439 15.7285C358.085 21.3639 361.258 29.0069 361.261 36.9773L361.264 36.986Z" fill="#E6E6E6"/>
<path d="M345.459 428.185H168.512C167.002 428.183 165.554 427.583 164.486 426.517C163.418 425.451 162.817 424.005 162.815 422.497V51.1377C162.817 49.6298 163.418 48.1841 164.486 47.1179C165.554 46.0516 167.002 45.4519 168.512 45.4502H345.459C346.97 45.4519 348.418 46.0516 349.486 47.1179C350.554 48.1841 351.155 49.6298 351.157 51.1377V422.497C351.155 424.005 350.554 425.451 349.486 426.517C348.418 427.583 346.97 428.183 345.459 428.185Z" fill="white"/>
<path d="M256.315 170.83C283.24 170.83 305.067 149.04 305.067 122.161C305.067 95.282 283.24 73.4922 256.315 73.4922C229.391 73.4922 207.564 95.282 207.564 122.161C207.564 149.04 229.391 170.83 256.315 170.83Z" fill="#E6E6E6"/>
<path d="M255.645 164.241C278.925 164.241 297.797 145.401 297.797 122.161C297.797 98.9209 278.925 80.0811 255.645 80.0811C232.366 80.0811 213.494 98.9209 213.494 122.161C213.494 145.401 232.366 164.241 255.645 164.241Z" fill="white"/>
<path d="M256.584 98.2937C251.83 98.2937 247.184 99.7008 243.232 102.337C239.28 104.973 236.199 108.72 234.38 113.104C232.561 117.488 232.085 122.312 233.013 126.966C233.94 131.62 236.229 135.895 239.59 139.25C242.951 142.606 247.233 144.891 251.895 145.816C256.557 146.742 261.389 146.267 265.78 144.451C270.172 142.635 273.925 139.56 276.566 135.615C279.207 131.669 280.616 127.031 280.616 122.286C280.616 115.923 278.084 109.82 273.577 105.321C269.07 100.821 262.957 98.2937 256.584 98.2937ZM256.584 105.491C258.01 105.491 259.404 105.914 260.589 106.704C261.775 107.495 262.699 108.619 263.245 109.935C263.79 111.25 263.933 112.697 263.655 114.093C263.377 115.489 262.69 116.772 261.682 117.779C260.673 118.785 259.389 119.471 257.99 119.748C256.592 120.026 255.142 119.884 253.824 119.339C252.507 118.794 251.381 117.872 250.589 116.688C249.797 115.504 249.374 114.113 249.374 112.689C249.374 111.744 249.56 110.808 249.922 109.935C250.285 109.061 250.816 108.268 251.485 107.6C252.155 106.931 252.95 106.401 253.824 106.039C254.699 105.678 255.637 105.491 256.584 105.491ZM256.584 140.141C253.735 140.128 250.933 139.422 248.421 138.083C245.908 136.744 243.76 134.814 242.164 132.459C242.279 127.661 251.776 125.019 256.584 125.019C261.391 125.019 270.887 127.661 271.003 132.459C269.406 134.812 267.258 136.742 264.745 138.081C262.233 139.419 259.431 140.127 256.584 140.143V140.141Z" fill="#C869D8"/>
<path d="M296.55 187.185H212.206V193.514H296.55V187.185Z" fill="#E6E6E6"/>
<path d="M307.068 203.63H200.921V209.959H307.068V203.63Z" fill="#E6E6E6"/>
<path d="M331.751 250.867H182.221V400.143H331.751V250.867Z" fill="#E6E6E6"/>
<path d="M327.801 254.025H184.598V396.985H327.801V254.025Z" fill="white"/>
<path d="M269.833 267.825H214.089V272.008H269.833V267.825Z" fill="#E6E6E6"/>
<path d="M300.17 280.105H214.089V284.287H300.17V280.105Z" fill="#C869D8"/>
<path d="M285.138 291.799H214.984V295.982H285.138V291.799Z" fill="#E6E6E6"/>
<path d="M255.044 304.63H214.089V308.813H255.044V304.63Z" fill="#E6E6E6"/>
<path d="M275.9 317.163H214.089V321.346H275.9V317.163Z" fill="#C869D8"/>
<path d="M269.833 329.775H214.089V333.957H269.833V329.775Z" fill="#E6E6E6"/>
<path d="M300.17 342.054H214.089V346.236H300.17V342.054Z" fill="#C869D8"/>
<path d="M285.138 353.748H214.984V357.93H285.138V353.748Z" fill="#E6E6E6"/>
<path d="M255.044 366.579H214.089V370.762H255.044V366.579Z" fill="#E6E6E6"/>
<path d="M275.9 379.113H214.089V383.295H275.9V379.113Z" fill="#E6E6E6"/>
<path d="M464.331 324.539C463.932 325.235 463.4 325.847 462.764 326.338C462.129 326.829 461.402 327.19 460.627 327.401C459.852 327.612 459.042 327.668 458.245 327.567C457.448 327.465 456.679 327.208 455.981 326.81C455.283 326.412 454.671 325.88 454.179 325.246C453.687 324.612 453.326 323.887 453.114 323.113C452.903 322.339 452.847 321.531 452.948 320.735C453.05 319.939 453.307 319.171 453.706 318.474C453.72 318.451 453.734 318.427 453.748 318.403C453.919 318.117 454.111 317.844 454.324 317.587L449.176 280.959L449.022 279.862L447.977 272.388L447.823 271.311L448.392 271.338L458.366 271.793L461.04 271.913L461.375 278.731L463.272 317.065C464.263 318.011 464.906 319.263 465.098 320.619C465.29 321.975 465.02 323.355 464.331 324.539Z" fill="#FFB8B8"/>
<path d="M449.052 280.194L461.716 279.034C462.373 278.972 462.979 278.653 463.401 278.147C463.823 277.641 464.028 276.989 463.971 276.333L461.625 250.042C461.513 248.788 461.155 247.569 460.57 246.453C459.986 245.338 459.187 244.348 458.22 243.541C457.253 242.733 456.135 242.124 454.932 241.747C453.729 241.371 452.463 241.235 451.207 241.347C449.951 241.459 448.73 241.817 447.612 242.4C446.495 242.983 445.503 243.78 444.694 244.746C443.886 245.712 443.275 246.827 442.898 248.028C442.521 249.23 442.385 250.493 442.497 251.747C442.513 251.928 442.535 252.109 442.561 252.288L446.359 278.076C446.446 278.667 446.743 279.207 447.195 279.598C447.648 279.988 448.226 280.204 448.824 280.205C448.9 280.206 448.976 280.202 449.052 280.194Z" fill="#C869D8"/>
<path d="M458.651 258.954C459.932 255.332 459.991 251.391 458.82 247.732C457.649 244.073 455.311 240.897 452.164 238.688C447.388 235.426 440.853 234.255 433.816 242.619C419.74 259.347 416.054 277.748 416.054 277.748L444.875 282.432C444.875 282.432 454.676 270.471 458.651 258.954Z" fill="#C869D8"/>
<path d="M412.037 447.381H403.82L399.911 415.74H412.038L412.037 447.381Z" fill="#FFB8B8"/>
<path d="M387.974 454.998H413.8V445.037H397.952C395.306 445.037 392.768 446.086 390.897 447.954C389.025 449.822 387.974 452.356 387.974 454.998Z" fill="#2F2E41"/>
<path d="M479.595 440.226L471.793 442.801L458.133 413.984L469.648 410.184L479.595 440.226Z" fill="#FFB8B8"/>
<path d="M459.14 454.998L483.661 446.907L480.53 437.449L465.483 442.414C464.239 442.824 463.088 443.476 462.096 444.33C461.104 445.185 460.29 446.226 459.701 447.395C459.112 448.563 458.759 449.836 458.663 451.141C458.567 452.445 458.729 453.756 459.14 454.998Z" fill="#2F2E41"/>
<path d="M440.559 230.392C449.651 230.392 457.021 223.034 457.021 213.957C457.021 204.881 449.651 197.523 440.559 197.523C431.467 197.523 424.097 204.881 424.097 213.957C424.097 223.034 431.467 230.392 440.559 230.392Z" fill="#FFB8B8"/>
<path d="M426.145 438.574L433.776 388.293C433.858 387.756 434.123 387.265 434.528 386.902C434.932 386.539 435.45 386.328 435.993 386.304C436.536 386.281 437.071 386.446 437.505 386.772C437.94 387.098 438.247 387.565 438.375 388.092L449.996 436.009C450.179 436.743 450.631 437.382 451.262 437.801C451.893 438.22 452.657 438.389 453.406 438.274L485.461 433.131C485.886 433.063 486.292 432.905 486.651 432.667C487.009 432.43 487.313 432.118 487.541 431.754C487.769 431.389 487.917 430.98 487.973 430.554C488.03 430.128 487.995 429.695 487.87 429.284L446.072 291.713C445.953 291.322 445.939 290.907 446.031 290.509L447.422 284.487C447.575 283.834 447.505 283.149 447.222 282.541C446.939 281.933 446.461 281.437 445.863 281.132C440.171 278.233 425.755 272.205 414.876 278.807C414.523 279.023 414.217 279.307 413.978 279.644C413.738 279.98 413.57 280.362 413.483 280.766L380.831 433.974C380.742 434.39 380.743 434.821 380.833 435.237C380.923 435.653 381.101 436.046 381.354 436.389C381.607 436.731 381.931 437.017 382.303 437.225C382.675 437.434 383.087 437.562 383.512 437.6L422.894 441.12C422.983 441.128 423.073 441.132 423.162 441.132C423.883 441.131 424.58 440.873 425.127 440.403C425.673 439.934 426.034 439.285 426.143 438.573L426.145 438.574Z" fill="#2F2E41"/>
<path d="M451.475 202.346C450.234 201.601 449.133 200.645 448.221 199.522C447.77 198.955 447.474 198.282 447.36 197.567C447.246 196.852 447.319 196.12 447.57 195.441C448.402 193.609 450.874 193.032 452.789 193.654C454.705 194.275 456.184 195.776 457.583 197.222C458.816 198.493 460.084 199.826 460.667 201.498C461.249 203.171 460.951 205.291 459.496 206.306C458.069 207.302 456.016 206.894 454.644 205.825C453.271 204.756 452.421 203.169 451.611 201.63L451.475 202.346Z" fill="#2F2E41"/>
<path d="M457.051 197.664C457.142 193.033 462.429 189.713 466.995 190.534C471.562 191.355 475.071 195.241 476.828 199.527C480.54 208.584 477.753 218.918 474.177 228.032C470.601 237.146 466.174 246.392 466.696 256.163C467.049 261.445 468.825 266.533 471.835 270.891C474.845 275.249 478.978 278.714 483.798 280.921C478.645 283.252 472.485 280.844 468.155 277.208C458.538 269.135 454.826 254.762 459.334 243.054C461.557 237.279 465.475 232.338 468.534 226.958C471.593 221.577 473.838 215.236 472.258 209.254C470.678 203.271 463.957 198.428 458.211 200.742L457.051 197.664Z" fill="#2F2E41"/>
<path d="M439.572 221.25C441.007 218.829 442.454 215.651 439.832 213.534C439.261 213.095 438.609 212.774 437.913 212.591C437.216 212.407 436.49 212.364 435.777 212.464C432.82 212.82 429.599 212.966 426.736 211.894C425.663 211.525 424.674 210.945 423.83 210.187C422.985 209.429 422.302 208.51 421.82 207.484C420.345 203.988 422.193 199.741 425.282 197.531C427.172 196.229 429.405 195.512 431.701 195.472C433.998 195.431 436.255 196.068 438.19 197.303C442.191 195.539 447.046 196.323 450.681 198.752C454.317 201.181 456.804 205.071 458.155 209.224C459.4 212.799 459.614 216.651 458.774 220.341C458.097 222.909 456.811 225.276 455.024 227.242C453.237 229.208 451.002 230.715 448.508 231.635C447.537 232.018 446.482 232.139 445.449 231.986C444.416 231.834 443.441 231.413 442.622 230.766C442.622 230.766 440.353 228.788 439.643 226.407C439.097 224.576 438.806 222.543 439.572 221.25Z" fill="#2F2E41"/>
<path d="M390.736 235.915C390.818 236.276 390.871 236.642 390.896 237.012L419.688 253.594L426.686 249.572L434.147 259.322L422.451 267.645C421.506 268.317 420.368 268.666 419.207 268.637C418.047 268.609 416.927 268.206 416.016 267.488L386.324 244.105C384.984 244.601 383.524 244.677 382.139 244.324C380.754 243.972 379.51 243.206 378.571 242.13C377.633 241.054 377.045 239.718 376.886 238.3C376.726 236.882 377.003 235.449 377.68 234.192C378.356 232.935 379.4 231.913 380.672 231.263C381.944 230.613 383.385 230.365 384.802 230.552C386.219 230.739 387.545 231.352 388.604 232.31C389.664 233.268 390.406 234.525 390.732 235.915H390.736Z" fill="#FFB8B8"/>
<path d="M420.651 254.38L429.957 266.42C430.222 266.762 430.557 267.043 430.941 267.244C431.324 267.445 431.746 267.562 432.179 267.585C432.611 267.609 433.044 267.539 433.447 267.381C433.85 267.223 434.214 266.98 434.515 266.669L445.049 255.749C446.832 254.424 448.014 252.447 448.337 250.252C448.659 248.058 448.095 245.825 446.768 244.045C445.442 242.266 443.461 241.085 441.263 240.763C439.064 240.441 436.828 241.005 435.045 242.329C434.954 242.397 434.864 242.466 434.776 242.538L421.564 249.913C421.186 250.124 420.858 250.414 420.602 250.763C420.346 251.113 420.169 251.513 420.082 251.937C419.995 252.361 420.001 252.798 420.099 253.22C420.197 253.641 420.384 254.037 420.649 254.38L420.651 254.38Z" fill="#C869D8"/>
<path d="M82.9113 283.074C82.5825 283.225 82.2662 283.401 81.9656 283.601L51.9034 270.792L50.831 262.887L38.8187 262.813L39.5285 280.946L79.2075 291.423C79.2911 291.698 79.3914 291.968 79.5078 292.231C80.0815 293.453 81.0041 294.479 82.1598 295.179C83.3155 295.88 84.6527 296.224 86.0034 296.168C87.3542 296.112 88.6584 295.659 89.752 294.865C90.8457 294.072 91.6802 292.974 92.1507 291.708C92.6212 290.443 92.7067 289.067 92.3965 287.754C92.0863 286.44 91.3942 285.247 90.4071 284.325C89.4201 283.403 88.182 282.792 86.8485 282.57C85.5151 282.348 84.1455 282.524 82.912 283.076L82.9113 283.074Z" fill="#A0616A"/>
<path d="M34.45 447.382H42.6673L46.5762 415.741H34.4486L34.45 447.382Z" fill="#A0616A"/>
<path d="M48.5367 445.038H32.6892V454.996H58.5148C58.5148 452.354 57.4635 449.82 55.5923 447.952C53.721 446.084 51.1831 445.035 48.5367 445.035H48.5367L48.5367 445.038Z" fill="#2F2E41"/>
<path d="M2.49225 445.064L10.6694 445.867L17.6675 414.761L5.59821 413.578L2.49225 445.064Z" fill="#A0616A"/>
<path d="M16.7461 444.112L0.977849 442.561L0 452.473L25.6958 454.999C25.8242 453.698 25.6945 452.383 25.3142 451.132C24.9339 449.88 24.3104 448.716 23.4793 447.705C22.6482 446.694 21.6258 445.856 20.4704 445.24C19.315 444.623 18.0492 444.24 16.7454 444.112L16.7461 444.112Z" fill="#2F2E41"/>
<path d="M32.1624 229.326C41.2541 229.326 48.6245 221.969 48.6245 212.892C48.6245 203.816 41.2541 196.458 32.1624 196.458C23.0706 196.458 15.7003 203.816 15.7003 212.892C15.7003 221.969 23.0706 229.326 32.1624 229.326Z" fill="#A0616A"/>
<path d="M44.5038 440.983C45.2102 440.985 45.8946 440.737 46.436 440.284C46.9774 439.832 47.3412 439.202 47.463 438.507C51.7131 414.942 65.6188 337.872 65.9513 335.736C65.9587 335.687 65.9623 335.637 65.962 335.587V329.841C65.9626 329.632 65.8972 329.428 65.775 329.257L63.9385 326.689C63.8512 326.566 63.7367 326.464 63.6038 326.391C63.4708 326.319 63.323 326.278 63.1717 326.271C52.701 325.781 18.4095 324.345 16.7526 326.411C15.089 328.485 15.6802 334.78 15.8142 336.02L15.8075 336.149L0.401754 434.509C0.281075 435.293 0.474692 436.094 0.9407 436.737C1.40671 437.38 2.10762 437.814 2.89175 437.945L12.5139 439.527C13.2305 439.642 13.9647 439.496 14.5828 439.117C15.2009 438.737 15.6619 438.148 15.882 437.458C18.8579 427.964 28.8373 396.027 32.2958 383.669C32.3179 383.592 32.3675 383.524 32.4354 383.48C32.5034 383.436 32.585 383.418 32.6652 383.429C32.7454 383.441 32.8188 383.481 32.8718 383.542C32.9248 383.603 32.9537 383.681 32.9533 383.762C32.7804 395.543 32.3628 425.598 32.216 435.978L32.2006 437.096C32.1942 437.853 32.4725 438.585 32.9805 439.147C33.4884 439.709 34.1891 440.06 34.944 440.131L44.2223 440.971C44.3159 440.979 44.4098 440.984 44.5038 440.983Z" fill="#2F2E41"/>
<path d="M42.6103 235.789C45.483 237.494 47.2022 240.626 48.1888 243.818C50.0151 249.72 51.1144 255.823 51.4623 261.991L52.5053 280.458L65.411 329.417C54.2251 338.866 47.7733 336.718 32.7153 328.99C17.6574 321.262 15.9375 331.567 15.9375 331.567L12.9268 289.909L8.62506 244.387C9.59083 243.227 10.6839 242.178 11.8838 241.26C15.8599 238.173 20.4861 236.027 25.4137 234.984C30.3413 233.94 35.4417 234.027 40.3308 235.238L42.6103 235.789Z" fill="#E6E6E6"/>
<path d="M46.8021 292.962C46.4551 293.091 46.119 293.248 45.7967 293.43L16.0709 278.576L15.5776 270.529L3.31596 269.685L2.65912 288.028L42.3824 301.142C42.7065 302.532 43.4467 303.79 44.5047 304.75C45.5626 305.709 46.8881 306.324 48.3047 306.513C49.7214 306.702 51.1621 306.456 52.4351 305.807C53.7082 305.159 54.7534 304.139 55.4315 302.883C56.1096 301.627 56.3886 300.194 56.2313 298.776C56.074 297.358 55.488 296.021 54.551 294.944C53.6141 293.866 52.3708 293.099 50.9864 292.744C49.6021 292.39 48.1423 292.464 46.8014 292.958L46.8021 292.962Z" fill="#A0616A"/>
<path d="M8.83953 244.592C1.52639 247.169 0.237488 275.087 0.237488 275.087C8.84154 270.363 19.1661 278.093 19.1661 278.093C19.1661 278.093 21.317 270.792 23.8981 261.344C24.6775 258.686 24.7708 255.875 24.1691 253.172C23.5675 250.468 22.2905 247.961 20.457 245.883C20.457 245.883 16.1534 242.014 8.83953 244.592Z" fill="#E6E6E6"/>
<path d="M17.4047 217.239C19.4557 215.601 22.254 218.577 22.254 218.577L23.8948 203.836C23.8948 203.836 34.1497 205.062 40.7141 203.426C47.2786 201.79 48.3034 209.365 48.3034 209.365C48.6418 206.305 48.7105 203.222 48.5085 200.15C48.0983 196.465 42.7658 192.778 33.3306 190.321C23.8955 187.864 18.9731 198.512 18.9731 198.512C12.406 201.787 15.3511 218.877 17.4047 217.239Z" fill="#2F2E41"/>
</g>
<defs>
<clipPath id="clip0_52_210">
<rect width="488" height="455" fill="white"/>
</clipPath>
</defs>
</svg>
