<svg width="696" height="400" viewBox="0 0 696 400" fill="none" xmlns="http://www.w3.org/2000/svg">
<g clip-path="url(#clip0_13_11)">
<path d="M114.403 181.874V69.4608C114.403 67.8554 115.037 66.3158 116.165 65.1806C117.294 64.0455 118.824 63.4077 120.42 63.4077C122.016 63.4077 123.546 64.0455 124.675 65.1806C125.803 66.3158 126.437 67.8554 126.437 69.4608V181.874C126.437 183.48 125.803 185.019 124.675 186.155C123.546 187.29 122.016 187.927 120.42 187.927C118.824 187.927 117.294 187.29 116.165 186.155C115.037 185.019 114.403 183.48 114.403 181.874Z" fill="#5D5D5D"/>
<path d="M100.004 181.874V69.4608C100.004 67.8554 100.638 66.3158 101.767 65.1806C102.895 64.0455 104.426 63.4077 106.022 63.4077C107.617 63.4077 109.148 64.0455 110.276 65.1806C111.405 66.3158 112.039 67.8554 112.039 69.4608V181.874C112.039 183.48 111.405 185.019 110.276 186.155C109.148 187.29 107.617 187.927 106.022 187.927C104.426 187.927 102.895 187.29 101.767 186.155C100.638 185.019 100.004 183.48 100.004 181.874V181.874Z" fill="#5D5D5D"/>
<path d="M85.606 181.874V69.4608C85.606 67.8554 86.2399 66.3158 87.3684 65.1806C88.4968 64.0455 90.0273 63.4077 91.6232 63.4077C93.2191 63.4077 94.7495 64.0455 95.878 65.1806C97.0064 66.3158 97.6404 67.8554 97.6404 69.4608V181.874C97.6404 183.48 97.0064 185.019 95.878 186.155C94.7495 187.29 93.2191 187.927 91.6232 187.927C90.0273 187.927 88.4968 187.29 87.3684 186.155C86.2399 185.019 85.606 183.48 85.606 181.874Z" fill="#5D5D5D"/>
<path d="M629.223 361.421C626.8 361.423 624.395 361.003 622.114 360.18L621.762 360.053L621.924 359.27C617.839 350.968 619.267 339.595 625.58 330.243C631.319 321.742 640.046 315.562 647.746 310.109C648.723 309.417 649.883 309.035 651.078 309.012C652.272 308.989 653.446 309.326 654.449 309.98C655.452 310.634 656.237 311.574 656.704 312.68C657.171 313.786 657.299 315.008 657.07 316.187L654.317 330.398C652.33 340.65 649.966 350.352 642.956 356.403C639.105 359.644 634.244 361.42 629.223 361.421Z" fill="#E6E6E6"/>
<path d="M647.255 385.977C644.588 385.962 641.967 385.276 639.631 383.982C637.294 382.689 635.316 380.829 633.876 378.571L633.676 378.258L634.152 377.836C635.384 371.075 641.178 365.052 648.957 362.461C656.028 360.107 663.833 360.492 670.715 360.83C671.624 360.875 672.5 361.19 673.231 361.736C673.963 362.281 674.516 363.033 674.822 363.896C675.128 364.759 675.173 365.693 674.95 366.581C674.727 367.47 674.248 368.271 673.572 368.885L665.828 375.916C660.202 381.024 654.59 385.636 647.82 385.966C647.632 385.974 647.443 385.978 647.255 385.977Z" fill="#E6E6E6"/>
<path d="M623.224 393.493C622.081 384.928 620.905 376.253 621.707 367.596C622.419 359.907 624.7 352.398 629.344 346.24C631.797 342.989 634.797 340.194 638.207 337.981C639.093 337.406 639.909 338.85 639.027 339.423C633.115 343.283 628.568 348.925 626.036 355.542C623.208 362.939 622.754 371.003 623.241 378.861C623.536 383.613 624.161 388.334 624.79 393.049C624.841 393.261 624.811 393.484 624.706 393.674C624.601 393.864 624.428 394.008 624.223 394.077C624.119 394.104 624.011 394.111 623.905 394.097C623.799 394.083 623.696 394.048 623.603 393.994C623.51 393.939 623.429 393.867 623.364 393.782C623.299 393.696 623.252 393.598 623.224 393.493V393.493Z" fill="#F2F2F2"/>
<path d="M619.993 398.417C625.496 388.402 631.88 377.272 643.287 373.715C646.454 372.73 649.783 372.376 653.085 372.675C654.125 372.767 653.865 374.416 652.827 374.324C647.28 373.855 641.747 375.361 637.191 378.578C632.782 381.664 629.35 385.954 626.444 390.504C624.665 393.291 623.071 396.196 621.476 399.097C620.967 400.024 619.477 399.355 619.993 398.417H619.993Z" fill="#F2F2F2"/>
<path d="M617.516 398.271L623.073 398.399L589.566 218.331L584.009 219.384L592.758 266.096H564.569L573.319 219.384L567.762 218.331L534.534 398.399L539.811 398.271L557.28 305.009H600.047L617.516 398.271ZM558.576 298.091L563.273 273.014H594.054L598.751 298.091H558.576Z" fill="#CACACA"/>
<path d="M374.863 184.743V125.608C374.863 123.853 377.562 122.424 380.88 122.424C384.198 122.424 386.897 123.853 386.897 125.608V184.743C386.897 186.498 384.198 187.927 380.88 187.927C377.562 187.927 374.863 186.498 374.863 184.743Z" fill="#5D5D5D"/>
<path d="M360.464 184.743V125.608C360.464 123.853 363.163 122.424 366.481 122.424C369.799 122.424 372.499 123.853 372.499 125.608V184.743C372.499 186.498 369.799 187.927 366.481 187.927C363.163 187.927 360.464 186.498 360.464 184.743Z" fill="#5D5D5D"/>
<path d="M346.066 184.743V125.608C346.066 123.853 348.765 122.424 352.083 122.424C355.401 122.424 358.1 123.853 358.1 125.608V184.743C358.1 186.498 355.401 187.927 352.083 187.927C348.765 187.927 346.066 186.498 346.066 184.743Z" fill="#5D5D5D"/>
<path d="M467.196 141.255C467.169 141.076 467.105 140.904 467.008 140.75C466.911 140.597 466.783 140.466 466.632 140.366L421.268 110.24C421.952 109.953 422.524 109.449 422.896 108.806H422.897C423.35 108.01 423.472 107.067 423.236 106.182C423 105.297 422.426 104.541 421.638 104.081L417.916 101.919C417.125 101.463 416.188 101.34 415.308 101.577C414.428 101.815 413.677 102.392 413.219 103.185C412.972 103.62 412.823 104.105 412.783 104.605L380.038 82.8592C378.938 80.1799 377.271 77.7741 375.152 75.8094C373.034 73.8446 370.515 72.3681 367.771 71.4828V61.8945H355.736V71.4828C351.744 72.7672 348.26 75.2945 345.788 78.7001C343.316 82.1057 341.983 86.2134 341.983 90.4302V93.0244H354.017C354.017 95.0884 354.832 97.068 356.283 98.5275C357.734 99.987 359.702 100.807 361.754 100.807C363.806 100.807 365.773 99.987 367.224 98.5275C368.675 97.068 369.49 95.0884 369.49 93.0244H381.525V90.4302C381.523 89.1867 381.407 87.9459 381.177 86.7241L464.016 141.738L429.605 183.824C429.338 183.822 429.072 183.82 428.803 183.82C426.057 183.82 423.397 183.885 420.862 183.998C421.015 183.57 421.082 183.117 421.059 182.663C421.009 181.748 420.601 180.89 419.924 180.276C419.247 179.663 418.356 179.344 417.446 179.389L413.154 179.614C412.244 179.664 411.391 180.074 410.781 180.755C410.172 181.436 409.854 182.332 409.899 183.248C409.931 183.789 410.091 184.314 410.365 184.78C402.775 185.591 397.857 186.71 397.857 187.279C397.857 188.211 411.063 187.324 427.593 187.281C427.668 187.497 427.8 187.689 427.974 187.837C428.148 187.986 428.358 188.085 428.582 188.124C428.807 188.164 429.038 188.143 429.251 188.063C429.465 187.983 429.654 187.848 429.798 187.67L430.117 187.281C446.598 187.327 459.749 188.209 459.749 187.279C459.749 186.402 448.056 184.219 432.906 183.869L466.917 142.273C467.032 142.132 467.116 141.969 467.164 141.794C467.212 141.618 467.223 141.435 467.196 141.255Z" fill="#CCCCCC"/>
<path d="M468.437 398.703H362.52C360.38 398.701 358.328 397.844 356.814 396.321C355.301 394.799 354.449 392.734 354.447 390.581V215.721C354.445 213.797 353.684 211.953 352.332 210.592C350.979 209.232 349.146 208.467 347.233 208.465H99.4818C97.5693 208.467 95.7357 209.232 94.3833 210.592C93.0309 211.953 92.2702 213.797 92.2679 215.721V390.581C92.2655 392.734 91.4141 394.799 89.9006 396.321C88.3871 397.844 86.335 398.701 84.1945 398.703H80.5706C78.43 398.701 76.3779 397.844 74.8644 396.321C73.3509 394.799 72.4995 392.734 72.4971 390.581V206.303C72.5028 201.145 74.5424 196.199 78.1683 192.552C81.7942 188.904 86.7104 186.853 91.8382 186.847H457.17C462.298 186.853 467.214 188.904 470.84 192.552C474.465 196.199 476.505 201.145 476.511 206.303V390.581C476.508 392.734 475.657 394.799 474.143 396.321C472.63 397.844 470.578 398.701 468.437 398.703V398.703Z" fill="#3F3D56"/>
<path d="M476.081 232.244H354.877V237.433H476.081V232.244Z" fill="white"/>
<path d="M476.081 302.287H354.877V307.475H476.081V302.287Z" fill="white"/>
<path d="M254.547 185.993L251.063 184.517L248.674 166.95H216.851L214.261 184.445L211.144 186.013C210.995 186.088 210.876 186.211 210.805 186.363C210.734 186.515 210.717 186.687 210.755 186.85C210.793 187.013 210.885 187.158 211.016 187.263C211.147 187.367 211.309 187.423 211.475 187.423H254.26C254.431 187.423 254.596 187.364 254.729 187.255C254.861 187.146 254.952 186.995 254.985 186.826C255.019 186.658 254.994 186.483 254.914 186.331C254.834 186.179 254.704 186.059 254.547 185.993V185.993Z" fill="#E6E6E6"/>
<path d="M311.098 169.288H154.776C153.956 169.286 153.17 168.957 152.591 168.373C152.011 167.789 151.686 166.997 151.686 166.172V143.997H314.188V166.172C314.188 166.997 313.863 167.789 313.284 168.373C312.704 168.957 311.918 169.286 311.098 169.288V169.288Z" fill="#CCCCCC"/>
<path d="M314.352 154.478H151.543V59.5971C151.544 58.6013 151.938 57.6467 152.638 56.9427C153.338 56.2386 154.287 55.8425 155.277 55.8414H310.618C311.608 55.8425 312.557 56.2386 313.257 56.9427C313.957 57.6467 314.351 58.6013 314.352 59.5971V154.478Z" fill="#3F3D56"/>
<path d="M304.628 147.591H161.267C160.504 147.591 159.773 147.285 159.233 146.742C158.693 146.2 158.39 145.464 158.389 144.696V65.6232C158.39 64.8556 158.693 64.1196 159.233 63.5768C159.773 63.0339 160.504 62.7286 161.267 62.7277H304.628C305.391 62.7286 306.122 63.0339 306.662 63.5768C307.202 64.1196 307.505 64.8556 307.506 65.6232V144.696C307.505 145.464 307.202 146.2 306.662 146.742C306.122 147.285 305.391 147.591 304.628 147.591V147.591Z" fill="white"/>
<path d="M465.337 71.8052C466.709 71.6064 468.107 71.7125 469.433 72.116C470.759 72.5196 471.981 73.2107 473.013 74.1408C474.045 75.0708 474.862 76.2172 475.406 77.4991C475.949 78.781 476.207 80.1673 476.161 81.5603L507.593 93.7308L493.352 103.966L465.687 90.8393C463.366 90.6059 461.211 89.5241 459.63 87.7988C458.048 86.0736 457.151 83.8248 457.108 81.4786C457.065 79.1324 457.879 76.8518 459.395 75.0689C460.912 73.286 463.026 72.1247 465.337 71.8051V71.8052Z" fill="#9E616A"/>
<path d="M584.683 65.8307L590 75.5561C588.715 81.7244 585.394 87.2742 580.577 91.3033C572.435 98.2103 529.867 123.935 529.867 123.935L476.127 96.7953L485.528 84.2283L527.719 98.4521C543.37 83.5848 562.257 72.6011 582.875 66.3764L584.683 65.8307Z" fill="#E4E4E4"/>
<path d="M574.795 226.759C597.958 226.759 616.736 220.604 616.736 213.012C616.736 205.419 597.958 199.264 574.795 199.264C551.632 199.264 532.855 205.419 532.855 213.012C532.855 220.604 551.632 226.759 574.795 226.759Z" fill="#CACACA"/>
<path d="M480.705 386.621L469.568 383.524L476.142 338.837L492.58 343.409L480.705 386.621Z" fill="#9E616A"/>
<path d="M480.561 398.271L444.651 388.285L444.776 387.828C445.801 384.099 448.256 380.932 451.602 379.024C454.948 377.116 458.91 376.623 462.617 377.654L462.618 377.654L484.551 383.753L480.561 398.271Z" fill="#2F2E41"/>
<path d="M448.415 386.766L437.844 382.07L450.817 338.824L466.418 345.753L448.415 386.766Z" fill="#9E616A"/>
<path d="M446.586 398.271L412.504 383.131L412.694 382.698C414.248 379.158 417.136 376.385 420.722 374.987C424.308 373.59 428.299 373.683 431.818 375.245L431.818 375.245L452.635 384.492L446.586 398.271Z" fill="#2F2E41"/>
<path d="M607.436 179.401C607.436 179.401 613.038 196.862 578.664 218.945L534.393 263.321L488.394 374.01L461.084 361.694L466.441 347.312L470.035 337.661L471.873 332.724L473.844 327.431L503.081 248.926L527.64 205.67L528.352 182.199L534.393 165.653L578.219 150.01L607.436 179.401Z" fill="#2F2E41"/>
<path d="M585.086 180.266C585.086 180.266 590.688 197.727 556.314 219.809L512.043 264.186L466.044 374.875L438.735 362.559L444.091 348.177L447.685 338.526L449.524 333.589L451.495 328.296L480.731 249.791L488.954 235.308C499.802 216.201 512.984 198.534 528.192 182.72L536.253 174.337L537.113 161.366L555.869 150.875L585.086 180.266Z" fill="#2F2E41"/>
<path d="M558.603 94.783L572.357 65.3825L596.358 62.089C596.358 62.089 615.1 86.1083 610.179 119.86C608.334 132.517 606.83 145.117 606.741 156.178C606.717 159.121 609.276 160.435 609.32 163.096C609.362 165.709 604.469 169.967 605.881 171.743C607.901 174.191 609.104 177.216 609.32 180.39C607.616 184.468 556.062 162.375 534.393 165.653L558.603 94.783Z" fill="#E4E4E4"/>
<path d="M592.693 47.2875C598.82 36.9201 595.431 23.5196 585.125 17.3568C574.819 11.1939 561.498 14.6024 555.371 24.9698C549.245 35.3373 552.633 48.7377 562.939 54.9006C573.246 61.0634 586.567 57.655 592.693 47.2875Z" fill="#9E616A"/>
<path d="M587.912 28.2876C587.87 28.8622 587.813 29.6232 587.746 30.4842C587.679 32.8412 588.339 35.1613 589.636 37.1252C590.851 39.1914 589.402 51.6705 589.402 51.6705C624.962 26.7351 596.864 1.68366 585.873 3.91056C586.102 0.73952 577.138 1.99574 577.138 1.99574C573.723 -3.35499 566.237 3.74766 566.237 3.74766L567.681 1.30315C561.87 2.79023 556.125 20.8591 556.125 20.8591C558.096 28.6543 588.141 25.1165 587.912 28.2876Z" fill="#2F2E41"/>
<path d="M449.962 106.348C462.182 89.9976 471.842 71.8617 478.607 52.5707C478.999 51.4167 478.971 50.1604 478.528 49.0252C478.086 47.89 477.257 46.9497 476.19 46.3716L434.374 23.8325C433.697 23.4651 432.946 23.2578 432.178 23.2264C431.41 23.195 430.645 23.3404 429.941 23.6514C429.224 23.9649 428.588 24.4387 428.08 25.0368C427.573 25.635 427.208 26.3417 427.013 27.1032C422.146 45.6926 412.997 62.8685 400.307 77.2413C399.785 77.8263 399.402 78.5235 399.188 79.2798C398.974 80.0362 398.934 80.8317 399.072 81.6058C399.204 82.3676 399.508 83.0889 399.959 83.7149C400.41 84.3409 400.998 84.855 401.677 85.2181L443.492 107.757C444.562 108.331 445.799 108.504 446.984 108.246C448.169 107.988 449.224 107.316 449.962 106.348V106.348Z" fill="#CCCCCC"/>
<path d="M447.109 104.192C446.884 104.474 446.568 104.669 446.215 104.742C445.863 104.815 445.497 104.762 445.179 104.592L403.363 82.0529C403.16 81.9464 402.984 81.794 402.849 81.6078C402.714 81.4215 402.624 81.2064 402.586 80.9793C402.543 80.7395 402.555 80.4928 402.622 80.2586C402.689 80.0243 402.809 79.809 402.973 79.6293C416.037 64.8331 425.455 47.1511 430.466 28.0139C430.524 27.7775 430.635 27.5577 430.792 27.3719C430.948 27.1861 431.145 27.0392 431.367 26.9427C431.577 26.8485 431.805 26.8044 432.034 26.814C432.264 26.8235 432.488 26.8864 432.689 26.9977L474.504 49.5366C474.82 49.7088 475.067 49.9869 475.202 50.3228C475.337 50.6587 475.35 51.0314 475.241 51.3764C468.597 70.3221 459.11 88.1333 447.109 104.192V104.192Z" fill="white"/>
<path d="M432.479 48.4118L461.321 65.4175C464.19 67.1095 466.789 62.6269 463.924 60.9376L435.082 43.9318C432.213 42.2399 429.614 46.7225 432.479 48.4118V48.4118Z" fill="#6C63FF"/>
<path d="M427.322 57.9238L456.163 74.9295C459.033 76.6215 461.631 72.1388 458.766 70.4496L429.925 53.4438C427.055 51.7518 424.457 56.2345 427.322 57.9238V57.9238Z" fill="#6C63FF"/>
<path d="M421.304 68.3005L450.146 85.3062C453.016 86.9981 455.614 82.5155 452.749 80.8262L423.908 63.8204C421.038 62.1285 418.439 66.6111 421.304 68.3004V68.3005Z" fill="#6C63FF"/>
<path d="M415.287 76.9476L444.129 93.9533C446.998 95.6453 449.597 91.1626 446.732 89.4734L417.89 72.4676C415.021 70.7756 412.422 75.2583 415.287 76.9476V76.9476Z" fill="#6C63FF"/>
<path d="M546.768 176.977L557.596 201.471C557.857 202.057 557.968 202.7 557.921 203.34C557.873 203.981 557.667 204.6 557.321 205.14C556.915 205.786 556.327 206.297 555.633 206.607C554.938 206.918 554.168 207.015 553.419 206.886C553.164 206.847 552.913 206.78 552.673 206.686C551.715 206.314 550.944 205.576 550.527 204.633L539.699 180.139C539.492 179.672 539.379 179.169 539.366 178.658C539.353 178.147 539.44 177.639 539.623 177.162C539.991 176.199 540.724 175.422 541.661 175.003C542.599 174.583 543.663 174.556 544.621 174.926C545.579 175.296 546.351 176.034 546.768 176.977V176.977Z" fill="#6C63FF"/>
<path d="M556.722 199.495L558.891 204.439L560.001 211.447C560.074 211.909 559.994 212.381 559.772 212.792C559.551 213.203 559.201 213.529 558.776 213.718C558.352 213.908 557.877 213.952 557.425 213.842C556.974 213.732 556.571 213.475 556.28 213.112L551.791 207.493L549.653 202.658L556.722 199.495Z" fill="#3F3D56"/>
<path d="M537.292 170.162L538.844 179.968C538.895 180.29 539.018 180.595 539.205 180.86C539.392 181.125 539.636 181.344 539.92 181.499C540.204 181.654 540.52 181.742 540.843 181.754C541.166 181.767 541.487 181.705 541.783 181.573L543.321 180.885L546.29 187.601C546.383 187.81 546.554 187.974 546.767 188.056C546.98 188.138 547.216 188.131 547.424 188.038C547.632 187.945 547.795 187.773 547.877 187.559C547.959 187.345 547.953 187.108 547.861 186.898L544.892 180.182L546.43 179.494C546.94 179.265 547.339 178.843 547.54 178.319C547.741 177.795 547.728 177.213 547.503 176.699C547.428 176.529 547.331 176.369 547.214 176.224L541.015 168.497C540.723 168.134 540.32 167.877 539.869 167.768C539.417 167.658 538.942 167.702 538.518 167.892C538.093 168.081 537.743 168.407 537.522 168.818C537.3 169.228 537.219 169.701 537.292 170.162V170.162Z" fill="#3F3D56"/>
<path d="M541.784 187.862C542.028 186.49 542.568 185.188 543.367 184.049C544.165 182.91 545.201 181.96 546.404 181.268C547.606 180.575 548.945 180.156 550.325 180.04C551.706 179.924 553.095 180.114 554.395 180.597L575.77 154.414L580.946 171.233L559.855 193.517C558.904 195.66 557.205 197.378 555.079 198.345C552.954 199.312 550.55 199.461 548.322 198.764C546.095 198.067 544.199 196.572 542.994 194.562C541.789 192.553 541.359 190.169 541.784 187.862V187.862Z" fill="#9E616A"/>
<path d="M568.694 186.16L559.28 172.481L586.012 136.625L572.241 106.939L573.244 71.6285L584.624 69.5138L584.765 69.5851C590.298 72.7887 594.574 77.7998 596.885 83.7861C599.724 90.9255 606.061 117.727 609.586 133.067C610.279 136.039 610.203 139.141 609.366 142.076C608.53 145.011 606.96 147.681 604.806 149.833L568.694 186.16Z" fill="#E4E4E4"/>
<path d="M303.624 120.063C303.546 120.727 303.52 121.397 303.546 122.065L255.345 157.34L242.104 151.445L230.648 170.386L253.081 183.113C254.894 184.142 256.989 184.551 259.052 184.279C261.115 184.008 263.035 183.071 264.523 181.608L313.036 133.942C315.519 134.576 318.135 134.436 320.537 133.538C322.938 132.64 325.011 131.029 326.48 128.917C327.949 126.805 328.744 124.293 328.759 121.716C328.774 119.139 328.009 116.618 326.565 114.489C325.121 112.36 323.067 110.723 320.677 109.797C318.286 108.871 315.671 108.699 313.181 109.304C310.69 109.909 308.442 111.263 306.735 113.184C305.028 115.106 303.943 117.505 303.624 120.063V120.063Z" fill="#FFB6B6"/>
<path d="M253.787 158.63L239.731 182.192C239.331 182.862 238.792 183.438 238.151 183.88C237.51 184.322 236.781 184.62 236.015 184.753C235.25 184.886 234.464 184.852 233.713 184.653C232.961 184.453 232.261 184.093 231.661 183.597L210.615 166.21C207.218 164.131 204.778 160.783 203.831 156.898C202.884 153.014 203.507 148.91 205.563 145.486C207.618 142.062 210.94 139.599 214.799 138.634C218.658 137.67 222.739 138.285 226.149 140.343L251.223 150.805C251.941 151.105 252.586 151.557 253.114 152.13C253.643 152.703 254.043 153.385 254.286 154.127C254.529 154.87 254.611 155.656 254.524 156.433C254.438 157.21 254.187 157.96 253.787 158.63L253.787 158.63Z" fill="#6C63FF"/>
<path d="M193.56 363.427H221.113V317.497H193.56V363.427Z" fill="#CACACA"/>
<path d="M219.732 341.801L216.196 347.043L282.322 392.181L285.858 386.938L219.732 341.801Z" fill="#CACACA"/>
<path d="M194.941 341.8L128.815 386.938L132.352 392.181L198.477 347.043L194.941 341.8Z" fill="#CACACA"/>
<path d="M284.09 398.271C288.872 398.271 292.749 394.371 292.749 389.56C292.749 384.749 288.872 380.849 284.09 380.849C279.307 380.849 275.431 384.749 275.431 389.56C275.431 394.371 279.307 398.271 284.09 398.271Z" fill="#CACACA"/>
<path d="M206.943 398.271C211.726 398.271 215.602 394.371 215.602 389.56C215.602 384.749 211.726 380.849 206.943 380.849C202.161 380.849 198.284 384.749 198.284 389.56C198.284 394.371 202.161 398.271 206.943 398.271Z" fill="#CACACA"/>
<path d="M130.584 398.271C135.366 398.271 139.243 394.371 139.243 389.56C139.243 384.749 135.366 380.849 130.584 380.849C125.801 380.849 121.924 384.749 121.924 389.56C121.924 394.371 125.801 398.271 130.584 398.271Z" fill="#CACACA"/>
<path d="M210.092 344.422H203.794V389.56H210.092V344.422Z" fill="#CACACA"/>
<path d="M201.433 338.086H213.241V277.11H201.433V338.086Z" fill="#CACACA"/>
<path d="M173.487 286.613V272.359C173.49 269.735 174.527 267.218 176.372 265.363C178.217 263.507 180.718 262.463 183.327 262.46H236.07C238.679 262.463 241.18 263.507 243.025 265.363C244.869 267.218 245.907 269.735 245.91 272.359V286.613C245.907 289.237 244.869 291.754 243.025 293.609C241.18 295.465 238.679 296.509 236.07 296.512H183.327C180.718 296.509 178.217 295.465 176.372 293.609C174.527 291.754 173.49 289.237 173.487 286.613V286.613Z" fill="#3F3D56"/>
<path d="M268.747 384.047L283.333 384.046L290.274 345.989L268.746 345.99L268.747 384.047Z" fill="#FFB8B8"/>
<path d="M265.027 398.27L312.061 398.269V397.67C312.061 395.252 311.587 392.857 310.667 390.623C309.747 388.389 308.399 386.359 306.699 384.649C304.999 382.939 302.981 381.582 300.76 380.657C298.539 379.731 296.159 379.255 293.755 379.255H293.753L265.026 379.256L265.027 398.27Z" fill="#2F2E41"/>
<path d="M290.564 360.447L319.644 294.849C322.072 289.32 322.34 283.074 320.396 277.355C318.451 271.636 314.437 266.864 309.152 263.989L246.077 229.964L217.294 227.501L190.744 225.074L190.553 225.4C190.308 225.816 184.599 235.735 188.458 246.611C191.385 254.86 198.998 261.304 211.086 265.763C239.302 276.17 271.896 285.065 284.6 288.405C285.161 288.55 285.686 288.812 286.139 289.175C286.593 289.538 286.965 289.994 287.231 290.512C287.497 291.024 287.656 291.586 287.696 292.162C287.736 292.739 287.657 293.317 287.464 293.862L260.448 354.92C260.166 355.694 260.064 356.523 260.151 357.344C260.238 358.164 260.511 358.953 260.949 359.65C261.386 360.347 261.978 360.934 262.677 361.365C263.376 361.796 264.164 362.06 264.98 362.136L285.167 363.615C285.338 363.631 285.509 363.639 285.679 363.639C286.713 363.639 287.724 363.337 288.591 362.771C289.458 362.204 290.144 361.397 290.564 360.447V360.447Z" fill="#2F2E41"/>
<path d="M259.229 384.047L273.815 384.046L280.755 345.989L259.227 345.99L259.229 384.047Z" fill="#FFB8B8"/>
<path d="M255.509 398.27L302.542 398.269V397.67C302.542 395.252 302.069 392.857 301.149 390.623C300.229 388.389 298.88 386.359 297.181 384.649C295.481 382.939 293.463 381.582 291.242 380.657C289.021 379.731 286.64 379.255 284.236 379.255H284.234L255.508 379.256L255.509 398.27Z" fill="#2F2E41"/>
<path d="M279.856 364.038L308.936 298.44C311.364 292.911 311.632 286.665 309.688 280.946C307.743 275.227 303.729 270.454 298.444 267.579L235.368 233.555L206.586 231.092L185.791 229.277L185.793 228.99C185.549 229.407 179.84 239.325 183.699 250.201C186.626 258.451 188.29 264.895 200.378 269.354C228.594 279.761 261.188 288.656 273.892 291.996C274.453 292.141 274.978 292.403 275.431 292.766C275.885 293.129 276.256 293.584 276.522 294.102C276.789 294.614 276.947 295.176 276.988 295.753C277.028 296.329 276.949 296.908 276.756 297.452L249.74 358.51C249.458 359.285 249.356 360.114 249.443 360.934C249.53 361.754 249.802 362.543 250.24 363.241C250.678 363.938 251.27 364.525 251.969 364.956C252.668 365.387 253.456 365.651 254.272 365.727L274.459 367.205C274.63 367.222 274.801 367.23 274.971 367.23C276.004 367.23 277.016 366.928 277.883 366.361C278.75 365.795 279.435 364.988 279.856 364.038V364.038Z" fill="#2F2E41"/>
<path d="M261.615 81.4902C265.349 65.6954 255.648 49.8462 239.946 46.09C224.245 42.3337 208.49 52.0929 204.756 67.8876C201.021 83.6824 210.723 99.5316 226.424 103.288C242.126 107.044 257.881 97.2849 261.615 81.4902Z" fill="#FFB8B8"/>
<path d="M333.916 187.632C346.135 171.281 355.795 153.145 362.56 133.854C362.952 132.7 362.924 131.444 362.482 130.309C362.039 129.174 361.21 128.233 360.143 127.655L318.327 105.116C317.651 104.749 316.9 104.541 316.132 104.51C315.364 104.479 314.599 104.624 313.895 104.935C313.178 105.249 312.541 105.722 312.034 106.321C311.526 106.919 311.161 107.625 310.966 108.387C306.099 126.976 296.951 144.152 284.261 158.525C283.738 159.11 283.355 159.807 283.141 160.564C282.927 161.32 282.887 162.115 283.025 162.889C283.158 163.651 283.461 164.373 283.912 164.999C284.364 165.625 284.951 166.139 285.63 166.502L327.446 189.041C328.516 189.615 329.753 189.788 330.938 189.53C332.122 189.272 333.178 188.6 333.916 187.632Z" fill="#CCCCCC"/>
<path d="M331.062 185.475C330.837 185.758 330.521 185.952 330.169 186.025C329.817 186.099 329.45 186.046 329.132 185.876L287.316 163.337C287.113 163.23 286.937 163.078 286.803 162.891C286.668 162.705 286.578 162.49 286.54 162.263C286.496 162.023 286.508 161.776 286.576 161.542C286.643 161.308 286.763 161.093 286.927 160.913C299.991 146.117 309.409 128.435 314.419 109.298C314.477 109.061 314.589 108.841 314.745 108.656C314.902 108.47 315.099 108.323 315.321 108.226C315.53 108.132 315.759 108.088 315.988 108.098C316.217 108.107 316.441 108.17 316.642 108.281L358.457 130.82C358.774 130.992 359.021 131.271 359.155 131.606C359.29 131.942 359.304 132.315 359.194 132.66C352.55 151.606 343.063 169.417 331.062 185.475Z" fill="white"/>
<path d="M316.433 129.696L345.274 146.701C348.144 148.393 350.742 143.911 347.877 142.221L319.036 125.216C316.166 123.524 313.568 128.006 316.433 129.696V129.696Z" fill="#CCCCCC"/>
<path d="M311.275 139.207L340.117 156.213C342.986 157.905 345.585 153.422 342.72 151.733L313.878 134.727C311.009 133.035 308.41 137.518 311.275 139.207V139.207Z" fill="#CCCCCC"/>
<path d="M307.223 148.682L333.453 164.346C336.063 165.905 338.854 162.683 336.248 161.127L310.018 145.463C307.408 143.904 304.617 147.126 307.223 148.682Z" fill="#CCCCCC"/>
<path d="M299.241 158.231L328.082 175.237C330.952 176.929 333.55 172.446 330.685 170.757L301.844 153.751C298.974 152.059 296.376 156.542 299.241 158.231V158.231Z" fill="#CCCCCC"/>
<path d="M250.035 232.345L192.206 231.997L192.19 231.584C191.087 202.396 194.633 175.956 203.031 150.754C203.15 149.811 203.278 148.803 203.404 147.813C204.838 136.538 205.977 127.586 216.636 124.252C215.748 123.064 215.224 121.641 215.13 120.158C215.062 119.172 215.191 118.183 215.507 117.248C215.824 116.313 216.322 115.45 216.973 114.71C217.596 113.996 218.355 113.414 219.204 112.997C220.053 112.58 220.975 112.338 221.919 112.283L242.502 111.578C243.584 111.571 244.636 111.93 245.49 112.598C247.058 113.769 248.159 115.463 248.597 117.376C249.036 119.29 248.783 121.298 247.883 123.041C247.641 123.527 247.548 123.748 247.513 123.844C248.245 127.701 250.416 132.282 252.713 137.13C256.003 144.071 259.732 151.938 260.69 160.355C261.208 164.899 260.993 169.498 260.053 173.973C259.624 176.385 259.525 178.844 259.76 181.283C259.948 184.899 260.125 188.313 258.093 191.615C257.575 192.51 256.983 193.464 256.287 194.521L253.429 201.394L250.035 232.345Z" fill="#CACACA"/>
<path d="M163.253 273.191V154.326C163.257 150.452 164.789 146.739 167.511 144C170.234 141.261 173.925 139.721 177.776 139.716H181.793C185.643 139.721 189.335 141.261 192.057 144C194.78 146.739 196.311 150.452 196.316 154.326V273.191C196.311 277.065 194.78 280.778 192.057 283.517C189.335 286.256 185.643 287.797 181.793 287.801H177.776C173.925 287.797 170.234 286.256 167.511 283.517C164.789 280.778 163.257 277.065 163.253 273.191V273.191Z" fill="#3F3D56"/>
<path d="M318.329 166.189C317.914 166.712 317.54 167.267 317.212 167.849L257.763 172.215L249.61 160.177L229.941 170.181L242.317 192.903C243.316 194.739 244.881 196.199 246.776 197.064C248.671 197.929 250.793 198.152 252.825 197.7L319.04 182.975C320.816 184.833 323.112 186.102 325.623 186.615C328.133 187.128 330.74 186.86 333.095 185.846C335.451 184.832 337.444 183.121 338.809 180.94C340.174 178.759 340.847 176.212 340.738 173.637C340.629 171.062 339.743 168.582 338.199 166.525C336.654 164.469 334.524 162.935 332.091 162.126C329.658 161.318 327.039 161.274 324.58 161.999C322.122 162.725 319.941 164.187 318.329 166.189V166.189Z" fill="#FFB6B6"/>
<path d="M255.763 172.483L231.461 185.031C230.769 185.388 230.01 185.591 229.233 185.626C228.457 185.661 227.682 185.527 226.962 185.234C226.241 184.94 225.592 184.494 225.058 183.926C224.525 183.357 224.119 182.68 223.87 181.939L215.118 155.997C213.324 152.435 213.004 148.304 214.23 144.506C215.456 140.708 218.126 137.554 221.658 135.731C210.885 141.294 233.322 125.494 241.885 142.275L257.691 164.476C258.144 165.112 258.454 165.838 258.603 166.605C258.751 167.373 258.733 168.164 258.55 168.923C258.367 169.683 258.023 170.395 257.542 171.009C257.061 171.623 256.454 172.126 255.763 172.483H255.763Z" fill="#CACACA"/>
<path d="M219.984 103.281C218.225 103.281 216.285 102.428 214.096 100.7C207.658 95.6143 203.056 88.544 200.996 80.5739C198.936 72.6037 199.532 64.1738 202.693 56.5775C204.284 52.7546 207.26 47.5587 212.401 44.5136C216.096 42.3256 220.437 41.5352 224.215 40.9661C227.487 40.4729 230.799 40.0802 234.061 39.8007C237.958 39.4655 242.459 39.2391 246.565 40.8081C249.573 41.9583 252.133 43.9892 254.609 45.9534C255.472 46.6374 256.364 47.3459 257.258 48.0012C259.424 49.7007 261.922 50.9211 264.589 51.5825C265.151 51.6999 265.682 51.9374 266.146 52.279C266.61 52.6206 266.995 53.0584 267.276 53.5627C267.563 54.0754 267.737 54.6439 267.786 55.23C267.836 55.816 267.76 56.406 267.563 56.9599C267.177 58.0493 266.828 59.0314 267.533 60.0954C267.795 60.4702 268.143 60.7749 268.549 60.9828C268.954 61.1907 269.404 61.2954 269.859 61.2878C270.1 61.2838 270.337 61.3403 270.55 61.4521C270.763 61.5639 270.945 61.7274 271.079 61.9279C271.215 62.1265 271.301 62.3557 271.328 62.5953C271.356 62.835 271.325 63.0778 271.238 63.3026L271.125 63.5957C271.428 63.6241 271.719 63.7259 271.973 63.8926C272.228 64.0593 272.439 64.2857 272.587 64.5524C272.808 64.9322 272.893 65.3764 272.829 65.8115C272.765 66.2466 272.555 66.6467 272.234 66.9456C269.626 69.4426 266.375 71.1544 262.849 71.8865C260.436 72.3626 257.954 72.3569 255.543 71.8696L255.155 71.7936L255.203 71.3612C245.452 67.8627 236.649 73.8001 231.631 80.5878L230.906 80.1275C231.031 79.8746 231.103 79.5989 231.119 79.3171C231.135 79.0352 231.094 78.7531 230.999 78.4876C230.897 78.169 230.735 77.8736 230.52 77.6183C230.306 77.363 230.043 77.1528 229.747 76.9997C229.15 76.7517 228.493 76.6872 227.859 76.8145C227.225 76.9418 226.642 77.2551 226.185 77.7149C225.719 78.2058 225.36 78.7889 225.131 79.427C224.902 80.0651 224.807 80.7443 224.853 81.4212C224.985 82.856 225.348 84.2596 225.929 85.5768C226.165 86.2068 226.409 86.8587 226.607 87.5157C227.718 91.2479 227.422 95.261 225.775 98.7874C225.016 100.396 223.642 102.447 221.412 103.083C220.948 103.215 220.467 103.282 219.984 103.281V103.281Z" fill="#2F2E41"/>
<path d="M694.976 400H1.02352C0.752577 399.999 0.493008 399.89 0.301702 399.697C0.110396 399.504 0.00296021 399.243 0.00296021 398.97C0.00296021 398.698 0.110396 398.436 0.301702 398.243C0.493008 398.05 0.752577 397.941 1.02352 397.941H694.976C695.248 397.941 695.508 398.049 695.7 398.242C695.892 398.435 696 398.697 696 398.97C696 399.243 695.892 399.505 695.7 399.698C695.508 399.891 695.248 400 694.976 400V400Z" fill="#CACACA"/>
</g>
<defs>
<clipPath id="clip0_13_11">
<rect width="696" height="400" fill="white"/>
</clipPath>
</defs>
</svg>
