<svg width="696" height="612" viewBox="0 0 696 612" fill="none" xmlns="http://www.w3.org/2000/svg">
<path d="M668.428 0.000923446H459.505C449.423 0.0003857 439.641 3.73568 431.766 10.5928C423.892 17.4499 418.394 27.0207 416.177 37.7319L310.614 547.684C309.462 553.247 309.442 559.016 310.554 564.587C311.666 570.159 313.884 575.398 317.053 579.938C320.221 584.477 324.262 588.207 328.894 590.866C333.525 593.524 338.635 595.047 343.864 595.327L558.64 606.852C570.141 607.469 581.454 603.508 590.47 595.707C599.486 587.907 605.588 576.801 607.638 564.461L667.524 203.92L671.979 205.307L683.44 136.97L678.855 135.722L695.57 35.0813C696.286 30.7705 696.121 26.3407 695.085 22.1077C694.049 17.8747 692.168 13.9428 689.577 10.5922C686.985 7.24166 683.747 4.555 680.093 2.72377C676.439 0.892552 672.458 -0.0381272 668.436 -0.00191191L668.428 0.000923446Z" fill="#3F3D56"/>
<path d="M487.006 10.9939H462.621C455.617 10.994 448.824 13.6026 443.37 18.3867C437.915 23.1709 434.127 29.8428 432.634 37.2949L331.304 543.086C330.72 545.999 330.721 549.014 331.305 551.926C331.89 554.838 333.044 557.578 334.691 559.959C336.337 562.34 338.436 564.307 340.843 565.723C343.251 567.14 345.912 567.974 348.643 568.169L562.721 583.45C568.76 583.881 574.734 581.875 579.503 577.815C584.271 573.756 587.499 567.926 588.572 561.438L675.037 38.6538C675.596 35.2702 675.467 31.794 674.659 28.4706C673.85 25.1473 672.381 22.0577 670.357 19.4199C668.332 16.7821 665.8 14.6604 662.94 13.2045C660.081 11.7486 656.962 10.994 653.805 10.9939H630.672C628.432 10.9938 626.256 11.7977 624.478 13.281C622.701 14.7643 621.422 16.8444 620.84 19.1992C620.326 21.2788 619.196 23.1157 617.627 24.4254C616.057 25.7351 614.134 26.4445 612.157 26.4437H502.329C498.457 26.4436 494.729 24.8524 491.888 21.9881C489.047 19.1238 487.304 15.1975 487.006 10.9939Z" fill="white"/>
<path d="M605.349 364.585C605.765 364.601 606.173 364.453 606.497 364.168C606.822 363.884 607.042 363.482 607.117 363.036L654.458 78.4775C654.504 78.207 654.495 77.9291 654.432 77.6628C654.37 77.3965 654.255 77.148 654.096 76.9342C653.939 76.7222 653.741 76.5505 653.516 76.4313C653.291 76.3122 653.044 76.2485 652.794 76.2448L437.407 73.4741H437.387C436.996 73.4777 436.617 73.6258 436.314 73.8942C436.01 74.1625 435.799 74.5352 435.715 74.9512L379.905 350.274C379.85 350.542 379.85 350.821 379.903 351.09C379.957 351.359 380.063 351.612 380.214 351.832C380.364 352.051 380.557 352.23 380.778 352.359C380.999 352.487 381.243 352.561 381.493 352.574L605.349 364.585Z" fill="#E6E6E6"/>
<path d="M418.436 382.983C418.24 382.984 418.05 383.056 417.897 383.189C417.743 383.321 417.636 383.507 417.591 383.714L415.574 393.129C415.546 393.262 415.544 393.4 415.569 393.534C415.594 393.668 415.646 393.794 415.72 393.904C415.794 394.014 415.89 394.106 415.999 394.172C416.109 394.238 416.231 394.278 416.356 394.288L530.301 403.108C530.513 403.122 530.722 403.053 530.89 402.913C531.058 402.772 531.174 402.57 531.216 402.344L533.156 391.452C533.179 391.319 533.176 391.183 533.148 391.052C533.119 390.921 533.065 390.799 532.989 390.692C532.913 390.586 532.817 390.499 532.708 390.436C532.599 390.373 532.478 390.336 532.355 390.328L418.489 382.985L418.436 382.983Z" fill="#E6E6E6"/>
<path d="M556.874 438.078C557.079 438.096 557.284 438.034 557.451 437.903C557.618 437.771 557.737 437.579 557.786 437.361L560.256 426.446C560.286 426.312 560.289 426.173 560.265 426.038C560.241 425.902 560.189 425.775 560.115 425.663C560.041 425.552 559.945 425.459 559.834 425.393C559.723 425.326 559.601 425.286 559.474 425.276L413.958 414.192C413.761 414.175 413.564 414.233 413.401 414.356C413.238 414.479 413.12 414.659 413.065 414.867L410.499 424.299C410.463 424.434 410.454 424.576 410.474 424.715C410.494 424.854 410.543 424.986 410.616 425.102C410.689 425.218 410.785 425.315 410.896 425.385C411.008 425.456 411.133 425.498 411.262 425.51L556.874 438.078Z" fill="#E6E6E6"/>
<path d="M549.059 473.067C549.265 473.085 549.469 473.022 549.637 472.891C549.804 472.76 549.923 472.568 549.972 472.35L552.441 461.435C552.472 461.301 552.475 461.161 552.45 461.026C552.426 460.891 552.375 460.763 552.3 460.652C552.226 460.54 552.13 460.448 552.019 460.381C551.909 460.314 551.786 460.275 551.66 460.265L406.144 449.181C405.946 449.164 405.75 449.222 405.587 449.344C405.424 449.467 405.305 449.648 405.25 449.855L402.685 459.288C402.648 459.423 402.639 459.565 402.66 459.704C402.68 459.843 402.728 459.975 402.801 460.091C402.874 460.207 402.97 460.303 403.082 460.374C403.194 460.444 403.318 460.487 403.447 460.498L549.059 473.067Z" fill="#E6E6E6"/>
<path d="M296.763 596.244C296.763 604.158 230.247 605 148.381 610.573C66.5883 616.14 0 604.158 0 596.244C0 588.329 66.8992 572.407 148.381 581.914C230.247 591.467 296.763 588.329 296.763 596.244Z" fill="#E6E6E6"/>
<path d="M482.04 532.88C482.247 532.904 482.455 532.844 482.625 532.713C482.795 532.582 482.916 532.388 482.964 532.167L488.185 509.424C488.216 509.291 488.219 509.152 488.196 509.018C488.173 508.883 488.123 508.755 488.049 508.644C487.976 508.532 487.882 508.439 487.772 508.372C487.663 508.304 487.541 508.263 487.416 508.251L398.055 500.066C397.846 500.05 397.639 500.116 397.471 500.25C397.302 500.385 397.183 500.581 397.134 500.802L392.681 522.631C392.654 522.762 392.653 522.897 392.678 523.029C392.703 523.16 392.754 523.284 392.826 523.393C392.899 523.501 392.992 523.592 393.099 523.658C393.206 523.724 393.325 523.765 393.448 523.778L482.04 532.88Z" fill="#60E876"/>
<path d="M121.221 440.201C122.346 439.362 123.289 438.263 123.982 436.984C124.675 435.704 125.102 434.275 125.233 432.796C125.364 431.318 125.196 429.826 124.74 428.426C124.284 427.026 123.552 425.751 122.595 424.693L126.213 336.731L107.792 338.983L108.863 425.022C107.335 426.89 106.49 429.303 106.488 431.804C106.485 434.305 107.326 436.721 108.849 438.592C110.373 440.463 112.475 441.66 114.756 441.956C117.036 442.252 119.337 441.626 121.222 440.198L121.221 440.201Z" fill="#FFB6B6"/>
<path d="M154.827 589.1L165.311 591.108L175.673 548.021L161.936 545.058L154.827 589.1Z" fill="#FFB6B6"/>
<path d="M183.823 605.581L150.872 599.272L153.11 585.408L173.33 589.279C176.706 589.926 179.708 592.007 181.676 595.064C183.644 598.121 184.416 601.905 183.822 605.582L183.823 605.581Z" fill="#2F2E41"/>
<path d="M126.05 594.816H136.695L141.759 550.099H126.048L126.05 594.816Z" fill="#FFB6B6"/>
<path d="M157.221 605.583L123.765 605.584L123.764 591.507L144.294 591.506C147.722 591.505 151.01 592.988 153.435 595.628C155.859 598.268 157.221 601.849 157.221 605.583Z" fill="#2F2E41"/>
<path d="M170.462 578.787C170.296 578.787 170.13 578.777 169.965 578.755L157.436 577.633C156.865 577.56 156.315 577.361 155.817 577.049C155.319 576.737 154.885 576.318 154.54 575.817C154.195 575.317 153.948 574.745 153.812 574.137C153.677 573.53 153.656 572.898 153.752 572.281L166.19 505.443L158.375 460.549C158.312 460.185 158.129 459.857 157.861 459.628C157.593 459.398 157.258 459.282 156.917 459.3C156.577 459.318 156.254 459.47 156.008 459.728C155.762 459.985 155.61 460.331 155.58 460.701L144.066 574.77C143.958 575.972 143.427 577.081 142.583 577.864C141.739 578.647 140.649 579.042 139.542 578.966L127.738 578.487C126.703 578.408 125.732 577.918 125.006 577.111C124.28 576.304 123.851 575.236 123.799 574.108L124.742 436.264L185.94 427.933L190.216 499.841L190.198 499.917L174.577 575.261C174.352 576.265 173.824 577.159 173.078 577.798C172.332 578.437 171.411 578.786 170.462 578.787Z" fill="#2F2E41"/>
<path d="M144.924 279.735C156.702 279.735 166.25 269.336 166.25 256.509C166.25 243.682 156.702 233.283 144.924 233.283C133.146 233.283 123.598 243.682 123.598 256.509C123.598 269.336 133.146 279.735 144.924 279.735Z" fill="#FFB6B6"/>
<path d="M165.018 446.754C161.682 446.776 158.411 445.757 155.591 443.817C145.258 436.785 133.527 439.58 127.452 441.872C126.849 442.102 126.206 442.181 125.572 442.102C124.937 442.023 124.327 441.789 123.787 441.417C123.253 441.052 122.802 440.56 122.468 439.979C122.134 439.397 121.924 438.741 121.856 438.058L110.81 330.61C108.959 312.607 118.917 295.681 134.487 290.364C135.072 290.164 135.667 289.975 136.271 289.796C141.117 288.366 146.191 288.109 151.137 289.044C156.083 289.979 160.781 292.083 164.901 295.208C169.097 298.368 172.606 302.49 175.181 307.286C177.756 312.082 179.335 317.434 179.806 322.966L189.107 431.134C189.17 431.835 189.083 432.541 188.853 433.199C188.623 433.856 188.256 434.447 187.781 434.923C184.52 438.207 175.057 446.753 165.018 446.754Z" fill="#60E876"/>
<path d="M131.379 353.652L106.459 350.667C105.75 350.582 105.066 350.332 104.454 349.933C103.842 349.534 103.316 348.997 102.911 348.356C102.507 347.716 102.234 346.989 102.112 346.223C101.989 345.458 102.019 344.673 102.2 343.921L108.544 317.589C108.731 315.615 109.275 313.701 110.145 311.958C111.015 310.215 112.194 308.677 113.613 307.432C115.032 306.188 116.664 305.263 118.413 304.709C120.163 304.156 121.996 303.985 123.806 304.208C125.616 304.431 127.368 305.042 128.96 306.006C130.552 306.971 131.953 308.269 133.082 309.827C134.211 311.384 135.045 313.17 135.536 315.08C136.027 316.991 136.166 318.989 135.944 320.958L136.886 348.074C136.913 348.851 136.786 349.625 136.514 350.343C136.241 351.061 135.83 351.707 135.308 352.236C134.785 352.766 134.164 353.167 133.487 353.411C132.81 353.656 132.092 353.738 131.383 353.654L131.379 353.652Z" fill="#60E876"/>
<path d="M189.005 436.435C190.029 435.453 190.842 434.24 191.389 432.879C191.935 431.518 192.201 430.043 192.167 428.559C192.133 427.074 191.801 425.615 191.194 424.285C190.587 422.956 189.719 421.787 188.653 420.862L182.511 333.067L164.46 337.493L175.053 422.991C173.744 425.046 173.172 427.553 173.446 430.036C173.72 432.519 174.822 434.807 176.542 436.464C178.261 438.122 180.48 439.035 182.777 439.029C185.073 439.024 187.288 438.1 189.002 436.435H189.005Z" fill="#FFB6B6"/>
<path d="M157.541 348.133C157.018 347.604 156.607 346.958 156.335 346.24C156.062 345.522 155.935 344.749 155.962 343.972L156.904 316.856C156.701 314.897 156.855 312.913 157.355 311.018C157.856 309.123 158.695 307.354 159.823 305.812C160.952 304.27 162.348 302.986 163.932 302.031C165.517 301.077 167.258 300.472 169.057 300.251C170.857 300.03 172.678 300.197 174.418 300.742C176.158 301.288 177.782 302.201 179.198 303.43C180.614 304.659 181.793 306.18 182.669 307.905C183.546 309.631 184.101 311.527 184.304 313.487L190.648 339.819C190.829 340.57 190.859 341.356 190.737 342.121C190.614 342.886 190.341 343.614 189.937 344.254C189.533 344.894 189.007 345.432 188.394 345.831C187.782 346.23 187.098 346.48 186.389 346.565L161.469 349.55C160.76 349.635 160.042 349.552 159.364 349.307C158.687 349.062 158.066 348.661 157.544 348.131L157.541 348.133Z" fill="#60E876"/>
<path d="M143.655 280.61C143.275 280.61 142.896 280.562 142.526 280.467L142.418 280.438C123.668 277.318 119.524 265.486 118.615 260.547C117.673 255.433 118.745 250.497 121.167 248.579C119.847 244.04 120.059 240.011 121.799 236.605C124.838 230.667 131.42 228.662 132.305 228.412C137.565 224.186 143.858 227.007 145.004 227.579C155.179 223.48 159.07 226.892 159.772 227.654C164.32 228.544 167.092 230.457 168.012 233.343C169.741 238.762 164.274 245.504 164.041 245.788L163.919 245.936L155.775 246.359C155.002 246.399 154.245 246.615 153.554 246.994C152.863 247.374 152.253 247.907 151.764 248.559C151.274 249.211 150.916 249.969 150.712 250.782C150.508 251.594 150.464 252.445 150.582 253.278C150.802 254.352 151.08 255.412 151.415 256.45C152.804 261.184 153.846 265.229 152.504 266.766C152.199 267.064 151.824 267.262 151.421 267.338C151.018 267.414 150.603 267.365 150.225 267.197C148.951 266.826 148.087 266.904 147.656 267.428C146.988 268.241 147.192 270.298 148.231 273.22C148.557 274.145 148.645 275.148 148.485 276.123C148.325 277.097 147.923 278.006 147.323 278.75C146.871 279.33 146.309 279.797 145.675 280.118C145.042 280.439 144.352 280.607 143.653 280.61H143.655Z" fill="#2F2E41"/>
</svg>
