<svg width="156" height="156" viewBox="0 0 156 156" fill="none" xmlns="http://www.w3.org/2000/svg">
<g filter="url(#filter0_b_201_9)">
<circle cx="78" cy="78" r="78" fill="white" fill-opacity="0.12"/>
<circle cx="78" cy="78" r="77.5" stroke="url(#paint0_linear_201_9)"/>
</g>
<path d="M82 58H66C64.9391 58 63.9217 58.4214 63.1716 59.1716C62.4214 59.9217 62 60.9391 62 62V94C62 95.0609 62.4214 96.0783 63.1716 96.8284C63.9217 97.5786 64.9391 98 66 98H90C91.0609 98 92.0783 97.5786 92.8284 96.8284C93.5786 96.0783 94 95.0609 94 94V70L82 58Z" stroke="url(#paint1_linear_201_9)" stroke-width="2" stroke-linecap="round" stroke-linejoin="round"/>
<path d="M82 58V70H94" stroke="url(#paint2_linear_201_9)" stroke-width="2" stroke-linecap="round" stroke-linejoin="round"/>
<path d="M86 80H70" stroke="url(#paint3_linear_201_9)" stroke-width="2" stroke-linecap="round" stroke-linejoin="round"/>
<path d="M86 88H70" stroke="url(#paint4_linear_201_9)" stroke-width="2" stroke-linecap="round" stroke-linejoin="round"/>
<path d="M74 72H72H70" stroke="url(#paint5_linear_201_9)" stroke-width="2" stroke-linecap="round" stroke-linejoin="round"/>
<defs>
<filter id="filter0_b_201_9" x="-4" y="-4" width="164" height="164" filterUnits="userSpaceOnUse" color-interpolation-filters="sRGB">
<feFlood flood-opacity="0" result="BackgroundImageFix"/>
<feGaussianBlur in="BackgroundImage" stdDeviation="2"/>
<feComposite in2="SourceAlpha" operator="in" result="effect1_backgroundBlur_201_9"/>
<feBlend mode="normal" in="SourceGraphic" in2="effect1_backgroundBlur_201_9" result="shape"/>
</filter>
<linearGradient id="paint0_linear_201_9" x1="0" y1="0" x2="159.213" y2="152.649" gradientUnits="userSpaceOnUse">
<stop stop-color="#4EFB6A"/>
<stop offset="0.515625" stop-color="#FAD03E"/>
<stop offset="1" stop-color="#DF1DFF"/>
</linearGradient>
<linearGradient id="paint1_linear_201_9" x1="62" y1="58" x2="101.464" y2="88.2692" gradientUnits="userSpaceOnUse">
<stop stop-color="#4EFB6A"/>
<stop offset="0.515625" stop-color="#FAD03E"/>
<stop offset="1" stop-color="#DF1DFF"/>
</linearGradient>
<linearGradient id="paint2_linear_201_9" x1="82" y1="58" x2="94.2472" y2="69.7422" gradientUnits="userSpaceOnUse">
<stop stop-color="#4EFB6A"/>
<stop offset="0.515625" stop-color="#FAD03E"/>
<stop offset="1" stop-color="#DF1DFF"/>
</linearGradient>
<linearGradient id="paint3_linear_201_9" x1="70" y1="80" x2="70.1326" y2="82.0344" gradientUnits="userSpaceOnUse">
<stop stop-color="#4EFB6A"/>
<stop offset="0.515625" stop-color="#FAD03E"/>
<stop offset="1" stop-color="#DF1DFF"/>
</linearGradient>
<linearGradient id="paint4_linear_201_9" x1="70" y1="88" x2="70.1326" y2="90.0344" gradientUnits="userSpaceOnUse">
<stop stop-color="#4EFB6A"/>
<stop offset="0.515625" stop-color="#FAD03E"/>
<stop offset="1" stop-color="#DF1DFF"/>
</linearGradient>
<linearGradient id="paint5_linear_201_9" x1="70" y1="72" x2="70.4988" y2="73.9129" gradientUnits="userSpaceOnUse">
<stop stop-color="#4EFB6A"/>
<stop offset="0.515625" stop-color="#FAD03E"/>
<stop offset="1" stop-color="#DF1DFF"/>
</linearGradient>
</defs>
</svg>
