<svg width="429" height="822" viewBox="0 0 429 822" fill="none" xmlns="http://www.w3.org/2000/svg">
<circle cx="214.5" cy="214.5" r="214.5" fill="url(#paint0_radial_203_2)" fill-opacity="0.15"/>
<circle cx="156.5" cy="668.5" r="119.5" fill="url(#paint1_radial_203_2)" fill-opacity="0.15"/>
<g filter="url(#filter0_b_203_2)">
<circle cx="78" cy="185" r="78" fill="white" fill-opacity="0.12"/>
<circle cx="78" cy="185" r="77.5" stroke="url(#paint2_linear_203_2)"/>
</g>
<path d="M82 165H66C64.9391 165 63.9217 165.421 63.1716 166.172C62.4214 166.922 62 167.939 62 169V201C62 202.061 62.4214 203.078 63.1716 203.828C63.9217 204.579 64.9391 205 66 205H90C91.0609 205 92.0783 204.579 92.8284 203.828C93.5786 203.078 94 202.061 94 201V177L82 165Z" stroke="url(#paint3_linear_203_2)" stroke-width="2" stroke-linecap="round" stroke-linejoin="round"/>
<path d="M82 165V177H94" stroke="url(#paint4_linear_203_2)" stroke-width="2" stroke-linecap="round" stroke-linejoin="round"/>
<path d="M86 187H70" stroke="url(#paint5_linear_203_2)" stroke-width="2" stroke-linecap="round" stroke-linejoin="round"/>
<path d="M86 195H70" stroke="url(#paint6_linear_203_2)" stroke-width="2" stroke-linecap="round" stroke-linejoin="round"/>
<path d="M74 179H72H70" stroke="url(#paint7_linear_203_2)" stroke-width="2" stroke-linecap="round" stroke-linejoin="round"/>
<g filter="url(#filter1_b_203_2)">
<circle cx="266" cy="458" r="78" fill="white" fill-opacity="0.12"/>
<circle cx="266" cy="458" r="77.5" stroke="url(#paint8_linear_203_2)"/>
</g>
<path d="M270 438H254C252.939 438 251.922 438.421 251.172 439.172C250.421 439.922 250 440.939 250 442V474C250 475.061 250.421 476.078 251.172 476.828C251.922 477.579 252.939 478 254 478H278C279.061 478 280.078 477.579 280.828 476.828C281.579 476.078 282 475.061 282 474V450L270 438Z" stroke="url(#paint9_linear_203_2)" stroke-width="2" stroke-linecap="round" stroke-linejoin="round"/>
<path d="M270 438V450H282" stroke="url(#paint10_linear_203_2)" stroke-width="2" stroke-linecap="round" stroke-linejoin="round"/>
<path d="M274 460H258" stroke="url(#paint11_linear_203_2)" stroke-width="2" stroke-linecap="round" stroke-linejoin="round"/>
<path d="M274 468H258" stroke="url(#paint12_linear_203_2)" stroke-width="2" stroke-linecap="round" stroke-linejoin="round"/>
<path d="M262 452H260H258" stroke="url(#paint13_linear_203_2)" stroke-width="2" stroke-linecap="round" stroke-linejoin="round"/>
<g filter="url(#filter2_b_203_2)">
<circle cx="78" cy="744" r="78" fill="white" fill-opacity="0.12"/>
<circle cx="78" cy="744" r="77.5" stroke="url(#paint14_linear_203_2)"/>
</g>
<path d="M82 724H66C64.9391 724 63.9217 724.421 63.1716 725.172C62.4214 725.922 62 726.939 62 728V760C62 761.061 62.4214 762.078 63.1716 762.828C63.9217 763.579 64.9391 764 66 764H90C91.0609 764 92.0783 763.579 92.8284 762.828C93.5786 762.078 94 761.061 94 760V736L82 724Z" stroke="url(#paint15_linear_203_2)" stroke-width="2" stroke-linecap="round" stroke-linejoin="round"/>
<path d="M82 724V736H94" stroke="url(#paint16_linear_203_2)" stroke-width="2" stroke-linecap="round" stroke-linejoin="round"/>
<path d="M86 746H70" stroke="url(#paint17_linear_203_2)" stroke-width="2" stroke-linecap="round" stroke-linejoin="round"/>
<path d="M86 754H70" stroke="url(#paint18_linear_203_2)" stroke-width="2" stroke-linecap="round" stroke-linejoin="round"/>
<path d="M74 738H72H70" stroke="url(#paint19_linear_203_2)" stroke-width="2" stroke-linecap="round" stroke-linejoin="round"/>
<path d="M77 263C92.44 366.944 248.127 306.687 270 380" stroke="url(#paint20_linear_203_2)" stroke-dasharray="4 4"/>
<path d="M77 666C92.76 550.506 251.673 617.459 274 536" stroke="url(#paint21_linear_203_2)" stroke-dasharray="4 4"/>
<defs>
<filter id="filter0_b_203_2" x="-4" y="103" width="164" height="164" filterUnits="userSpaceOnUse" color-interpolation-filters="sRGB">
<feFlood flood-opacity="0" result="BackgroundImageFix"/>
<feGaussianBlur in="BackgroundImage" stdDeviation="2"/>
<feComposite in2="SourceAlpha" operator="in" result="effect1_backgroundBlur_203_2"/>
<feBlend mode="normal" in="SourceGraphic" in2="effect1_backgroundBlur_203_2" result="shape"/>
</filter>
<filter id="filter1_b_203_2" x="184" y="376" width="164" height="164" filterUnits="userSpaceOnUse" color-interpolation-filters="sRGB">
<feFlood flood-opacity="0" result="BackgroundImageFix"/>
<feGaussianBlur in="BackgroundImage" stdDeviation="2"/>
<feComposite in2="SourceAlpha" operator="in" result="effect1_backgroundBlur_203_2"/>
<feBlend mode="normal" in="SourceGraphic" in2="effect1_backgroundBlur_203_2" result="shape"/>
</filter>
<filter id="filter2_b_203_2" x="-4" y="662" width="164" height="164" filterUnits="userSpaceOnUse" color-interpolation-filters="sRGB">
<feFlood flood-opacity="0" result="BackgroundImageFix"/>
<feGaussianBlur in="BackgroundImage" stdDeviation="2"/>
<feComposite in2="SourceAlpha" operator="in" result="effect1_backgroundBlur_203_2"/>
<feBlend mode="normal" in="SourceGraphic" in2="effect1_backgroundBlur_203_2" result="shape"/>
</filter>
<radialGradient id="paint0_radial_203_2" cx="0" cy="0" r="1" gradientUnits="userSpaceOnUse" gradientTransform="translate(214.5 214.5) rotate(90) scale(214.5)">
<stop stop-color="#D84EFB"/>
<stop offset="1" stop-color="#D84EFB" stop-opacity="0"/>
</radialGradient>
<radialGradient id="paint1_radial_203_2" cx="0" cy="0" r="1" gradientUnits="userSpaceOnUse" gradientTransform="translate(156.5 668.5) rotate(90) scale(119.5)">
<stop stop-color="#66FB4E"/>
<stop offset="1" stop-color="#4EA8FB" stop-opacity="0"/>
</radialGradient>
<linearGradient id="paint2_linear_203_2" x1="0" y1="107" x2="159.213" y2="259.649" gradientUnits="userSpaceOnUse">
<stop stop-color="#4EFB6A"/>
<stop offset="0.515625" stop-color="#FAD03E"/>
<stop offset="1" stop-color="#DF1DFF"/>
</linearGradient>
<linearGradient id="paint3_linear_203_2" x1="62" y1="165" x2="101.464" y2="195.269" gradientUnits="userSpaceOnUse">
<stop stop-color="#4EFB6A"/>
<stop offset="0.515625" stop-color="#FAD03E"/>
<stop offset="1" stop-color="#DF1DFF"/>
</linearGradient>
<linearGradient id="paint4_linear_203_2" x1="82" y1="165" x2="94.2472" y2="176.742" gradientUnits="userSpaceOnUse">
<stop stop-color="#4EFB6A"/>
<stop offset="0.515625" stop-color="#FAD03E"/>
<stop offset="1" stop-color="#DF1DFF"/>
</linearGradient>
<linearGradient id="paint5_linear_203_2" x1="70" y1="187" x2="70.1326" y2="189.034" gradientUnits="userSpaceOnUse">
<stop stop-color="#4EFB6A"/>
<stop offset="0.515625" stop-color="#FAD03E"/>
<stop offset="1" stop-color="#DF1DFF"/>
</linearGradient>
<linearGradient id="paint6_linear_203_2" x1="70" y1="195" x2="70.1326" y2="197.034" gradientUnits="userSpaceOnUse">
<stop stop-color="#4EFB6A"/>
<stop offset="0.515625" stop-color="#FAD03E"/>
<stop offset="1" stop-color="#DF1DFF"/>
</linearGradient>
<linearGradient id="paint7_linear_203_2" x1="70" y1="179" x2="70.4988" y2="180.913" gradientUnits="userSpaceOnUse">
<stop stop-color="#4EFB6A"/>
<stop offset="0.515625" stop-color="#FAD03E"/>
<stop offset="1" stop-color="#DF1DFF"/>
</linearGradient>
<linearGradient id="paint8_linear_203_2" x1="188" y1="380" x2="347.213" y2="532.649" gradientUnits="userSpaceOnUse">
<stop stop-color="#4EFB6A"/>
<stop offset="0.515625" stop-color="#FAD03E"/>
<stop offset="1" stop-color="#DF1DFF"/>
</linearGradient>
<linearGradient id="paint9_linear_203_2" x1="250" y1="438" x2="289.464" y2="468.269" gradientUnits="userSpaceOnUse">
<stop stop-color="#4EFB6A"/>
<stop offset="0.515625" stop-color="#FAD03E"/>
<stop offset="1" stop-color="#DF1DFF"/>
</linearGradient>
<linearGradient id="paint10_linear_203_2" x1="270" y1="438" x2="282.247" y2="449.742" gradientUnits="userSpaceOnUse">
<stop stop-color="#4EFB6A"/>
<stop offset="0.515625" stop-color="#FAD03E"/>
<stop offset="1" stop-color="#DF1DFF"/>
</linearGradient>
<linearGradient id="paint11_linear_203_2" x1="258" y1="460" x2="258.133" y2="462.034" gradientUnits="userSpaceOnUse">
<stop stop-color="#4EFB6A"/>
<stop offset="0.515625" stop-color="#FAD03E"/>
<stop offset="1" stop-color="#DF1DFF"/>
</linearGradient>
<linearGradient id="paint12_linear_203_2" x1="258" y1="468" x2="258.133" y2="470.034" gradientUnits="userSpaceOnUse">
<stop stop-color="#4EFB6A"/>
<stop offset="0.515625" stop-color="#FAD03E"/>
<stop offset="1" stop-color="#DF1DFF"/>
</linearGradient>
<linearGradient id="paint13_linear_203_2" x1="258" y1="452" x2="258.499" y2="453.913" gradientUnits="userSpaceOnUse">
<stop stop-color="#4EFB6A"/>
<stop offset="0.515625" stop-color="#FAD03E"/>
<stop offset="1" stop-color="#DF1DFF"/>
</linearGradient>
<linearGradient id="paint14_linear_203_2" x1="0" y1="666" x2="159.213" y2="818.649" gradientUnits="userSpaceOnUse">
<stop stop-color="#4EFB6A"/>
<stop offset="0.515625" stop-color="#FAD03E"/>
<stop offset="1" stop-color="#DF1DFF"/>
</linearGradient>
<linearGradient id="paint15_linear_203_2" x1="62" y1="724" x2="101.464" y2="754.269" gradientUnits="userSpaceOnUse">
<stop stop-color="#4EFB6A"/>
<stop offset="0.515625" stop-color="#FAD03E"/>
<stop offset="1" stop-color="#DF1DFF"/>
</linearGradient>
<linearGradient id="paint16_linear_203_2" x1="82" y1="724" x2="94.2472" y2="735.742" gradientUnits="userSpaceOnUse">
<stop stop-color="#4EFB6A"/>
<stop offset="0.515625" stop-color="#FAD03E"/>
<stop offset="1" stop-color="#DF1DFF"/>
</linearGradient>
<linearGradient id="paint17_linear_203_2" x1="70" y1="746" x2="70.1326" y2="748.034" gradientUnits="userSpaceOnUse">
<stop stop-color="#4EFB6A"/>
<stop offset="0.515625" stop-color="#FAD03E"/>
<stop offset="1" stop-color="#DF1DFF"/>
</linearGradient>
<linearGradient id="paint18_linear_203_2" x1="70" y1="754" x2="70.1326" y2="756.034" gradientUnits="userSpaceOnUse">
<stop stop-color="#4EFB6A"/>
<stop offset="0.515625" stop-color="#FAD03E"/>
<stop offset="1" stop-color="#DF1DFF"/>
</linearGradient>
<linearGradient id="paint19_linear_203_2" x1="70" y1="738" x2="70.4988" y2="739.913" gradientUnits="userSpaceOnUse">
<stop stop-color="#4EFB6A"/>
<stop offset="0.515625" stop-color="#FAD03E"/>
<stop offset="1" stop-color="#DF1DFF"/>
</linearGradient>
<linearGradient id="paint20_linear_203_2" x1="77" y1="263" x2="184.971" y2="433.763" gradientUnits="userSpaceOnUse">
<stop stop-color="#4EFB6A"/>
<stop offset="0.515625" stop-color="#FAD03E"/>
<stop offset="1" stop-color="#DF1DFF"/>
</linearGradient>
<linearGradient id="paint21_linear_203_2" x1="77" y1="666" x2="201.039" y2="485.783" gradientUnits="userSpaceOnUse">
<stop stop-color="#4EFB6A"/>
<stop offset="0.515625" stop-color="#FAD03E"/>
<stop offset="1" stop-color="#DF1DFF"/>
</linearGradient>
</defs>
</svg>
